<svg xmlns="http://www.w3.org/2000/svg" xmlns:xlink="http://www.w3.org/1999/xlink" viewBox="0 0 800 500"><defs><style>.cls-1{fill:none;}.cls-2{isolation:isolate;}.cls-3{fill:url(#linear-gradient);}.cls-4{clip-path:url(#clip-path);}.cls-5{fill:url(#linear-gradient-2);}.cls-6{opacity:0.9;mix-blend-mode:color-dodge;}.cls-7{fill:url(#linear-gradient-3);}.cls-8{fill:#1c2635;}.cls-9{mix-blend-mode:overlay;}.cls-10{fill:#56606d;}.cls-11{fill:url(#linear-gradient-4);}</style><linearGradient id="linear-gradient" x1="20.54" y1="-3.55" x2="900.54" y2="584.45" gradientTransform="matrix(-1, 0, 0, 1, 800, 0)" gradientUnits="userSpaceOnUse"><stop offset="0" stop-color="#364354"/><stop offset="0.08" stop-color="#313d4d"/><stop offset="0.41" stop-color="#1f2937"/><stop offset="0.73" stop-color="#141d29"/><stop offset="1" stop-color="#101924"/></linearGradient><clipPath id="clip-path"><rect class="cls-1" width="800" height="500"/></clipPath><linearGradient id="linear-gradient-2" x1="-156.24" y1="67.62" x2="602.08" y2="67.62" gradientTransform="matrix(-0.99, -0.14, -0.14, 1, 802.3, 26.69)" gradientUnits="userSpaceOnUse"><stop offset="0" stop-color="#f0824e"/><stop offset="0.24" stop-color="#f0824e"/><stop offset="1" stop-color="#efbf53"/></linearGradient><linearGradient id="linear-gradient-3" x1="132.68" y1="517.57" x2="929.2" y2="517.57" gradientTransform="matrix(-0.85, -0.52, -0.52, 0.85, 995.94, 353.23)" gradientUnits="userSpaceOnUse"><stop offset="0" stop-color="#1c2635"/><stop offset="1" stop-color="#1c2635"/></linearGradient><linearGradient id="linear-gradient-4" x1="101.94" y1="198.37" x2="174.44" y2="198.37" gradientTransform="matrix(-1, 0, 0, 1, 800, 0)" gradientUnits="userSpaceOnUse"><stop offset="0" stop-color="#efbf53"/><stop offset="0.24" stop-color="#efbf53"/><stop offset="1" stop-color="#f07f4e"/></linearGradient></defs><g class="cls-2"><g id="BACKGROUND"><rect class="cls-3" width="800" height="500"/></g><g id="OBJECTS"><g class="cls-4"><path class="cls-5" d="M753.28,236.52C763.2,181.71,738.62,139.92,699,124c-87.76-33.53-140,112.35-223.9,8C425.35,78.33,421,71.82,369.39,80.79c-229.41,53.06-210.16-283.53.07-271.54C617.14-209.38,1070.6.75,901,302.23c-61.13,65.22-167.68,29.66-147.71-65.71"/><g class="cls-6"><path class="cls-7" d="M609.22,719.29c-45.3-7.35-26.51-80.78-19.33-111.53,18.3-67.87,95.58-158.66,44.75-215.71C542.92,289.11,467.71,544.35,377.26,477,328.84,441.36,362.83,348,311,313.16,229.33,262.74,183,439.27,93.83,399.4,67,385.84,71.09,364.91,55.06,343.33,24.3,298-29.83,314.57-71.19,339c-60.33,36.16-61.95,105.5-49.83,171.56,42.93,180.23,343,370.15,525.84,302.88,38.28-14.58,77.85-31.27,117.42-48,24.52-11.29,61.81-14.74,83.39-30.77"/><path class="cls-8" d="M609.82,718.78c-40.4-6.95-29.11-64.8-23.22-92.47,1.63-7.69,3.23-15.47,5.49-23a271.21,271.21,0,0,1,12.17-31.73c10-22.39,21.42-44.09,31.07-66.62,8.84-20.64,17-42.76,17.31-65.48.3-20.41-7.3-38.28-21.69-52.66-9.24-9.24-20.53-17.06-33.62-19.37-11-1.94-22.13.3-32.23,4.78-25.27,11.22-45.16,33.14-64.1,52.6-19.61,20.15-39.51,42.92-64.89,55.94-10.68,5.49-22.67,8.62-34.68,6.47-14.65-2.62-28.16-12.23-36.51-24.36-11.41-16.58-14.53-37.56-17.11-57.07-2.67-20.16-4.2-41-11.36-60.21-6.4-17.16-18.1-31.49-35.4-38.32a52.89,52.89,0,0,0-37.38-.54c-13.3,4.67-24.86,13.43-35.35,22.63-12.11,10.61-23.2,22.32-34.72,33.56-21,20.55-47.31,44.93-79.15,41.54a58.15,58.15,0,0,1-25.21-8.59c-10.48-6.79-16-16.91-20.58-28.18C60.08,346.52,47.47,326,24.84,318c-20.12-7.13-42.33-3.13-61.86,4-21.88,7.94-43.9,19.67-59.86,36.89C-130,394.57-131.28,446.71-125,492.3a203,203,0,0,0,6.77,32.29,250.52,250.52,0,0,0,9.76,26.11,321.17,321.17,0,0,0,29.2,52.11c25,36.66,56.17,69,90.18,97.4A604.64,604.64,0,0,0,128,776.78c40.41,20.17,83.35,36,127.78,44.49,39.65,7.61,81,9.43,120.66.82,25.37-5.5,49.33-16.18,73.28-25.92q23.73-9.64,47.33-19.61c13.92-5.85,27.7-12.44,42.14-16.93,22.49-7,47.72-10.64,67.17-24.82.87-.64-1.06-.65-1.54-.29C583.82,749.85,556,752.57,532,761c-14.67,5.15-28.88,12-43.22,18q-23.24,9.72-46.56,19.19c-23.25,9.39-46.36,19.29-71.09,24a267.46,267.46,0,0,1-60,4.32c-43.81-1.53-87.1-12-128-27.33A583.28,583.28,0,0,1,59.71,734.87c-37.59-25.57-72.59-55.29-102.9-89.23-27.19-30.46-51.08-64.72-66.38-102.75a235.67,235.67,0,0,1-8.92-26.5c-3-11.19-4.5-22.88-5.77-34.39-2.64-23.91-2.9-48.53,2.73-72.05,5.55-23.23,17.41-44.46,35.78-59.95,9.7-8.18,20.87-14.47,32.26-20A158.56,158.56,0,0,1-20,317.89c22.91-5.22,47.22-2.51,64.67,14.45,8.94,8.7,15.33,19.58,20.05,31,4,9.71,7.61,19.72,15.24,27.29,11.68,11.61,29.65,16.5,45.81,14.88,13.9-1.4,26.77-7.67,38.13-15.54,25.88-17.94,45.45-43.22,69.45-63.38,10.75-9,22.86-17.55,36.73-20.78,14.48-3.37,30.18.41,42.1,9.2,16.1,11.85,23.54,30.74,27.54,49.7,4.25,20.17,5.25,40.85,9.18,61.08,3.52,18.06,9.75,36.6,24.14,48.95,9.42,8.07,21.22,13.7,33.73,14.21,24.64,1,46.31-16.24,63.52-31.89,22-20,41.11-42.87,63.52-62.37,18-15.66,41.55-32.24,66.69-25.25,14,3.9,26,14.09,35.07,25.13,13.68,16.64,17,37.83,14,58.7-3.36,22.91-12.66,44.69-22.27,65.57-10,21.69-21.14,42.87-30.11,65-6.83,16.87-11.11,34.34-14.44,52.19-3.26,17.56-5.88,36.45-2.21,54.15,3.14,15.14,12.32,26.87,28.08,29.58.59.1,2.26-.84,1.19-1Z"/></g><g class="cls-9"><path class="cls-10" d="M384.91-217.19c41.39-28.22,93.74-39.3,143.26-33.82,44.58,4.94,90.68,24.56,115.65,63.53,12.4,19.35,18.22,42,18.22,64.93,0,21.92-5.21,42.24-13.73,62.26-8.9,20.95-19.86,41-30.88,60.88-12.73,23-25.83,45.71-38.16,68.88-12.18,22.88-23.74,46.17-33.06,70.38-8.36,21.7-15.12,44.42-17,67.71-1.61,20.65,1.11,41.76,10.78,60.29a99.35,99.35,0,0,0,18.82,25.06c8,7.83,17.6,16.23,28.62,19.21,23.24,6.28,49.13-3.46,70.14-12.81,25.5-11.34,49.27-26.09,73.07-40.55,9.17-5.57,18.34-11.5,28.28-15.62a120.32,120.32,0,0,1,33.2-8.22,146.54,146.54,0,0,1,69.47,9.44c22.69,9.06,42.88,24.5,55.68,45.5,13.27,21.75,17.51,47.29,14.86,72.39-2.7,25.58-9,50.63-11.4,76.26-2.09,22.45-1.8,48.14,13.09,66.57,7.36,9.1,17.53,15.07,28.47,18.86.23.08,1.09-.28.8-.38-12.29-4.26-23.48-11.35-30.89-22.23-6.36-9.33-9.45-20.42-10.69-31.54-2.86-25.8,2.65-52,7-77.33,4.25-24.59,8.13-48.86,1.92-73.5a106.2,106.2,0,0,0-40.3-59.71C854.44,233,802.64,226,761.16,241.9c-9.16,3.51-17.54,8.58-25.92,13.62-11.29,6.79-22.48,13.74-33.85,20.39-25.37,14.84-52.5,30-81.61,35.8-12,2.38-24.93,3-36.47-1.63-5.76-2.32-11-6.71-15.8-10.6a115.14,115.14,0,0,1-12.85-12.23A98.56,98.56,0,0,1,530.3,230.2c-2.09-22.58,2.19-45.36,8.71-66.91,7.39-24.47,17.85-47.94,29.23-70.79,22.85-45.87,50.54-89.19,72.94-135.29,8.42-17.32,16.63-35.55,19.72-54.7,3.89-24.08,2.61-49.17-6.63-71.93-17.06-42-57.87-67.63-100.64-77.73a222,222,0,0,0-138.82,12.92,192.84,192.84,0,0,0-30.64,17c-.4.28.56.17.74.05Z"/><path class="cls-10" d="M391-219.2c41.64-28.17,94.33-38.71,143.91-32.34,45.05,5.79,91,26.85,115.35,66.84,12.56,20.64,17.88,44.74,17,68.77-.73,20.85-6.15,40.21-14.17,59.34-18.92,45.12-45,87.07-67.43,130.48C574,96.56,562.86,119.6,553.76,143.46c-8.19,21.48-15,43.88-17.06,66.86-1.81,19.6.08,39.85,8.72,57.75,9.17,19,25.43,34,44,43.82,20.46,10.81,46.29,2.87,66.25-5.14,26.23-10.53,50.5-25.44,74.54-40.15,9.48-5.8,18.91-11.84,28.82-16.91a111.65,111.65,0,0,1,31.72-10.3A145.44,145.44,0,0,1,861,244.86c23,7.68,44.13,21.64,58.26,41.58C934.34,307.69,940,334,938,359.7c-2,25.52-8.24,50.52-10.61,76-2.08,22.43-2,48.07,12.49,66.74,7.21,9.31,17.33,15.5,28.29,19.46.34.13,1.13-.37.58-.57-12.26-4.43-23.29-11.77-30.49-22.82-6.35-9.75-9.25-21.29-10.31-32.77-2.41-26.26,3.33-52.72,7.45-78.52,3.94-24.67,6.43-49.07-1.33-73.34-7.44-23.31-23.16-42.88-43.7-56-37-23.68-89.64-29-129.65-9.69-9.43,4.55-18.33,10.25-27.24,15.7-11.87,7.25-23.71,14.54-35.81,21.4a363.76,363.76,0,0,1-39.83,19.95c-12.57,5.22-25.82,9.66-39.45,10.85a53.17,53.17,0,0,1-33.67-7.86,107.62,107.62,0,0,1-25.95-21.62c-13.23-15.44-20.13-34.8-21.43-55-1.42-22,3.05-44.15,9.45-65.13,7.48-24.53,17.87-48.12,29.09-71.15C598,49.94,624.47,6.73,646.14-38.94c8.07-17,15.92-34.77,19.5-53.37,4.59-23.85,3.72-49.24-4.61-72.19-15.61-43-55.39-70.58-98.26-82.21a217.71,217.71,0,0,0-141.46,10.22,189.94,189.94,0,0,0-30.94,16.94c-.54.37.28.58.62.35Z"/><path class="cls-10" d="M397.14-221.33c41.47-27.83,93.83-37.93,143-31,45.36,6.42,91,28.54,115.2,69,12.49,20.88,17.89,45.13,17.14,69.35-.62,20.43-5.84,39.42-13.47,58.26C640.92-11,615.9,30.76,594.3,73.82c-11.45,22.85-22.36,46-31.31,70-8,21.27-14.54,43.36-16.9,66-2,19.43-.71,39.6,7.14,57.7,8.18,18.87,23,33.6,40.51,44a51.68,51.68,0,0,0,28.92,7.57c12.31-.38,24.42-3.81,35.91-8.06,26.51-9.8,51-24.56,75-39.17,19-11.55,37.41-23.64,59.52-28.28a143.85,143.85,0,0,1,70.44,3.32c23,6.94,44.45,20,59.16,39.27,15.64,20.45,22.21,46.36,20.72,71.86-1.48,25.3-7.54,50.11-9.79,75.33-2,22.46-1.91,48.14,12.45,66.91,7,9.22,16.91,15.49,27.68,19.55.39.15,1.13-.42.56-.63-12.07-4.55-22.83-12-29.88-22.94-6.37-9.93-9.22-21.67-10.24-33.32-2.27-25.89,3.21-51.92,7-77.41,3.71-24.8,5.57-49.3-3.2-73.37-8.17-22.42-24.29-40.88-44.68-53.08C856,236.7,803.68,232.57,764.5,253c-22.3,11.6-43.07,26-65.11,38.14a314.79,314.79,0,0,1-39.54,18.77c-12.17,4.63-25.11,8.4-38.22,8.58-12.28.17-22.28-4.06-32.38-10.74a100.21,100.21,0,0,1-24.1-22c-12.31-15.86-18.12-35.39-18.85-55.3-.81-22,3.8-43.89,10.19-64.79C563.9,141.4,574,118,584.86,95.11,606.29,50,631.8,6.88,652.56-38.57c7.72-16.88,15.17-34.45,18.58-52.8,4.42-23.78,3.12-49.18-5.18-72-15.68-43-54.91-71.4-97.77-83.74a213.27,213.27,0,0,0-141,8.69,188.15,188.15,0,0,0-30.66,16.65c-.54.37.26.67.64.42Z"/><path class="cls-10" d="M403.29-223.47c41.57-27.67,94-37.26,143-29.45,45.43,7.23,90.47,30.47,114.3,71.16,12.36,21.09,17.8,45.45,17.14,69.79-.55,20-5.57,38.61-12.79,57.12-17.3,44.33-41.29,85.9-62.09,128.61-11.09,22.8-21.67,45.9-30.42,69.71-7.82,21.26-14.35,43.27-17,65.84-2.23,19.29-1.43,39.37,5.66,57.65,7.17,18.5,20.58,33.47,37.14,44.16,9.06,5.84,18.06,9.82,29,10.15,11.78.36,23.53-2.49,34.61-6.23,26.59-9,51.13-23.49,75.08-37.87,18.92-11.36,37.43-24.08,59.17-29.35a142.33,142.33,0,0,1,69.92,1.26c23,6.2,44.73,18.41,60,36.94,16.21,19.62,23.72,45.08,22.81,70.35-.89,24.94-6.73,49.45-8.9,74.28-2,22.44-1.92,48,12,67,6.9,9.4,16.68,15.89,27.43,20.12.43.17,1.13-.45.55-.67-12.07-4.75-22.7-12.41-29.58-23.56-6.12-9.94-8.85-21.55-9.84-33.07-2.22-25.82,3.13-51.74,6.64-77.2,1.58-11.48,3-23.1,2.7-34.71a108.39,108.39,0,0,0-7.67-37.21c-8.86-22-25.59-39.69-46.24-51.12-38.07-21.08-88.89-23.39-127.5-2.5-22.52,12.19-43.78,26.56-66.42,38.58-12.75,6.78-25.86,13.08-39.54,17.77-12.05,4.14-25,7.36-37.86,6.34-11.55-.93-21.31-6.53-30.55-13.19a94.67,94.67,0,0,1-22-21.8c-11.54-16.22-16.48-35.87-16.79-55.59-.35-22,4.38-44,10.8-64.95,7.34-24,17.12-47.25,27.66-70C614.59,50,639.16,7,659-38.18c7.36-16.76,14.41-34.14,17.64-52.24,4.21-23.55,2.6-48.72-5.53-71.26-15.58-43.18-54.21-72.45-97.06-85.63-45.52-14-96.43-11.67-140.37,6.73a185.43,185.43,0,0,0-31.06,16.64c-.55.37.24.75.65.47Z"/><path class="cls-10" d="M409.41-225.69c41.74-27.57,94.31-36.62,143.28-27.86,45.26,8.1,89.4,32.29,113,72.92,12.34,21.28,17.94,45.77,17.43,70.28-.4,19.37-5.09,37.54-11.82,55.6C654.8-10.5,631.6,31.12,611.47,73.75s-40.58,87.75-46.51,135c-2.39,19.08-2.07,38.94,4.19,57.3,6.19,18.13,18.21,33.33,33.79,44.37,8.4,5.95,17.38,11.21,27.75,12.51,11.06,1.38,22.38-.69,33-3.75,26.4-7.63,50.8-21.63,74.32-35.51,19.42-11.46,38.58-25.26,60.5-31.46,22.49-6.35,46.84-6.37,69.54-1.07,23.11,5.4,45.2,16.76,61.17,34.58,16.86,18.8,25.39,43.86,25.1,69-.28,24.55-5.9,48.77-8,73.19-1.89,22.42-1.93,47.81,11.61,67,6.74,9.53,16.36,16.24,27.08,20.63.33.14,1.2-.32.76-.5-11.63-4.77-21.86-12.28-28.61-23-6.26-10-9.1-21.68-10.16-33.3-2.34-25.45,2.72-51,5.92-76.15,1.42-11.13,2.7-22.39,2.26-33.62a105.46,105.46,0,0,0-8.52-37.76c-9.33-21.45-26.38-38.4-47-49.18-38.65-20.2-88.19-20.89-126.51.24-23,12.7-45,27.25-68.4,39.25C692.05,308,678.92,314,665.2,318.15c-11.57,3.49-24.11,5.94-36.19,3.89-10.78-1.83-20.54-8.27-29-14.87a90.34,90.34,0,0,1-20.54-22.1c-10.66-16.4-14.84-35.92-14.87-55.3,0-21.87,4.66-43.59,10.93-64.45,7.21-24,16.74-47.21,27-70,20-44.57,43.66-87.47,62.71-132.47,7.13-16.82,13.93-34.24,17-52.32a141.34,141.34,0,0,0-5.78-70.21C661-203.16,622.86-233.38,580-247.43c-45.16-14.79-96-13.2-140,4.89A182.79,182.79,0,0,0,408.79-226c-.54.36.27.58.62.35Z"/><path class="cls-10" d="M415.55-227.86c41.76-27.36,94.22-35.86,143-26.33,45.32,8.86,88.92,34.07,112.31,74.9,12.27,21.42,18,46,17.63,70.6-.27,18.94-4.73,36.81-11.07,54.56-15.63,43.83-37.83,85.2-57.18,127.44C600.65,116,581,160.64,574.52,207.49c-2.63,19.12-2.8,39,2.75,57.67a88.51,88.51,0,0,0,30.64,44.63c7.9,6.16,17.08,12.32,27,14.53,10.36,2.32,21.27,1,31.48-1.45,26.3-6.32,50.7-20,73.93-33.43,11-6.35,21.8-13,32.79-19.32,9.13-5.26,18.34-10.21,28.41-13.42,22.08-7,46.22-7.72,68.87-3.16,23.1,4.65,45.44,15.15,62,32.2,17.34,17.87,26.82,42.25,27.28,67.07.44,24.06-4.94,48-6.92,71.88-1.85,22.5-2,47.9,11.1,67.38,6.59,9.77,16.15,16.74,26.9,21.35.31.14,1.19-.31.76-.49-11.67-5-21.81-12.82-28.39-23.81-6-10-8.72-21.7-9.73-33.26-2.23-25.35,2.69-50.74,5.53-75.84,1.25-11,2.31-22.17,1.44-33.24a103.12,103.12,0,0,0-9.94-37.09c-10.16-20.76-27.81-36.69-48.54-46.55-20.54-9.76-43.69-13.9-66.36-12.9a129.54,129.54,0,0,0-58.55,17c-23.52,13.22-46.14,27.93-70.43,39.75-12.4,6-25.23,11.51-38.62,14.92-11.32,2.88-23.68,4.49-35.08,1.15-10.23-3-20.07-10.08-28-17a87.12,87.12,0,0,1-18.25-21.9c-9.69-16.64-13.07-36.05-12.76-55.11.36-22,5.16-43.73,11.44-64.7,7.1-23.7,16.32-46.73,26.22-69.39,19.32-44.25,42.05-87,60.24-131.76C678.5-53.62,685-71,687.85-89.06a142.65,142.65,0,0,0-6.32-69.24c-15.47-43.54-53.14-74.53-96-89.35-44.75-15.48-95.42-14.63-139.39,3.13a179.46,179.46,0,0,0-31.19,16.33c-.55.35.27.55.61.33Z"/><path class="cls-10" d="M421.71-230c41.59-27,93.66-35,142-24.93,45.76,9.54,89.25,35.93,112.54,77.36,12.14,21.61,17.9,46.23,17.63,71-.21,18.62-4.58,36.31-10.62,53.83C668.27-9.34,647.06,31.79,628.47,73.68c-18.94,42.7-37.94,87.2-44.57,133.78-2.73,19.11-3.15,39,1.9,57.77A87.86,87.86,0,0,0,614,309.83c7.38,6.22,16.17,12.37,25.37,15.51,9.81,3.34,20.55,2.74,30.58.81,26.35-5.07,50.95-18.6,74-31.73,11.08-6.31,22-12.9,33-19.3,9.09-5.27,18.22-10.49,28.17-14,21.49-7.52,45.19-8.78,67.56-5,23.06,3.89,45.59,13.54,62.68,29.78,18.12,17.23,28.48,41.39,29.44,66.32.92,23.86-4.29,47.67-6,71.4-1.64,22.44-1.52,47.68,11.73,67,6.44,9.37,15.59,16.16,25.88,20.77.42.19,1.12-.41.55-.66-52.12-23.35-36.62-88.48-32.26-133.39,1.05-10.71,1.81-21.59.57-32.32a100.76,100.76,0,0,0-11.07-36.08c-10.83-20.15-29-35.2-49.76-44.28s-44.28-12.6-67-10.83a129,129,0,0,0-31.82,6.4c-9.31,3.19-17.89,7.86-26.41,12.75-23.52,13.49-46.49,28-71.18,39.32-12.27,5.62-25,10.61-38.34,13.17-10.86,2.09-22.68,2.56-33-2a91,91,0,0,1-43-40.15C585,266.38,582.36,247,583,228.17c.74-22.12,5.66-44,12-65.13,7-23.42,15.94-46.22,25.49-68.7C639.09,50.49,660.89,8,678.18-36.45c6.49-16.67,12.6-33.89,15.27-51.64a144.12,144.12,0,0,0-6.77-68.76c-15.53-43.66-52.76-75.44-95.59-91.06-44.36-16.17-94.82-16.11-138.79,1.33a177.4,177.4,0,0,0-31.24,16.16c-.54.36.24.72.65.46Z"/><path class="cls-10" d="M427.89-232.35c42.29-27.27,95.16-34.4,143.8-22.75,45.34,10.85,87.66,38.45,110.27,80a145.49,145.49,0,0,1,17.31,69.87c0,18.22-4.15,35.65-9.8,52.89-14.08,43-34.37,83.89-52.23,125.4-18.35,42.66-36.68,86.83-43.74,133-5.58,36.5-2.39,76.7,26.29,103.2A95.88,95.88,0,0,0,644.55,326c9,4.09,19.16,4.31,28.78,3,24.92-3.45,48.47-15.7,70.27-27.64,11.53-6.32,22.85-13,34.21-19.65,9.2-5.36,18.43-11,28.27-15.13,21.56-9,46-11.1,69.06-7.89,22.69,3.16,45.06,11.78,62.54,26.84a95.14,95.14,0,0,1,32.25,63.28c2.19,23.1-2.81,46.62-4.57,69.6s-2.16,48.69,10.71,68.8c6.27,9.81,15.42,17.05,25.9,22,.25.12,1-.28.91-.32C952.13,485,966.55,421.59,970.38,377c.93-10.75,1.53-21.66.06-32.39a97.75,97.75,0,0,0-12.1-35.83c-11.58-19.88-30.48-34.27-51.72-42.58a141.43,141.43,0,0,0-66.11-8.51,127.49,127.49,0,0,0-29.81,6.72c-9.44,3.41-18.18,8.34-26.86,13.32-23.67,13.59-46.92,28.09-72,39-12.63,5.51-25.93,10.38-39.69,12-11.41,1.37-21.81-.25-31.88-5.82-16.78-9.29-30.78-23-38.91-40.47-7.88-17-10-36.08-9.15-54.65,1-21.76,5.75-43.25,11.85-64.1,6.83-23.35,15.49-46.15,24.74-68.64,18-43.67,38.95-86.15,55.53-130.39,6.23-16.64,12.06-33.78,14.64-51.42a145,145,0,0,0-7.12-68.65c-15.75-44.23-53.19-76.92-96.53-93.13-43.88-16.41-93.89-16.8-137.6.43a174.18,174.18,0,0,0-30.58,15.71c-.39.25.57.11.73,0Z"/><path class="cls-10" d="M434-234.3c42.13-26.95,94.72-33.59,142.9-21.39,45.41,11.49,87.31,39.85,110,81.47a149.23,149.23,0,0,1,17.86,71.56c0,17.43-3.94,34.28-9.11,50.84C682.26-8.93,662.72,31.93,645.49,73.34,627.74,116,610,160,602.87,205.94c-5.56,35.66-3.73,75.76,23,103A96.25,96.25,0,0,0,648,325.41a49.56,49.56,0,0,0,27.73,6.45c25.14-1.38,49.51-13.87,71.29-25.51,11.82-6.31,23.39-13.07,35-19.79,9.2-5.33,18.39-10.9,28.09-15.3,20.5-9.31,43.94-12,66.22-9.86,23,2.25,46,10.05,64.24,24.5a93.27,93.27,0,0,1,34.5,62c2.86,23-2.07,46.75-3.57,69.72-1.47,22.55-1.51,47.67,11,67.46,6.13,9.69,15,17,25.26,22,.36.18,1.22-.32.75-.54-50.27-24.62-35.13-88.19-32.24-132.94,1.49-23-1.56-45.64-14.2-65.46-12.13-19-31.2-32.46-52.24-40.06a141.35,141.35,0,0,0-66.68-6.77A123,123,0,0,0,813,269.28c-9.63,4-18.67,9.38-27.68,14.58-23.52,13.57-46.94,27.78-72.24,37.87-11.86,4.72-24.42,8.75-37.25,9.45-11.47.63-21.06-2.57-30.77-8.46-16-9.7-28.79-23.77-35.94-41.15-7.08-17.2-8.63-36.17-7.55-54.59,2.7-45.88,19.5-90.55,36.41-132.82C655.2,51,675.21,8.93,690.88-34.83c6-16.64,11.49-33.77,13.83-51.35,3-22.25.07-45.73-7.33-66.85-15.47-44.15-51.87-77.64-94.67-95-43.49-17.65-93.59-19.32-137.64-2.64a171.38,171.38,0,0,0-31.72,16c-.55.35.25.66.63.42Z"/><path class="cls-10" d="M440.18-236.65c42.43-26.91,95.21-32.74,143.3-19.44,45.4,12.55,86.71,42.1,109.07,84.09a153.11,153.11,0,0,1,17.72,70.26c.19,17.3-3.54,34.12-8.44,50.63C689.25-8.77,670.69,31.7,654.21,72.6c-17.22,42.74-34.38,86.62-41.79,132.32-5.68,35-5.28,74.9,19.4,103,11.76,13.37,29.19,25.7,47.53,26.07,23.6.49,47.11-10.79,67.64-21.23,22.16-11.26,43-24.9,65.22-36.07,20.3-10.23,43.41-13.94,66-12.47,23,1.49,46.11,8.44,64.89,22A91.71,91.71,0,0,1,979.73,345c3.93,22.35-.48,45.69-1.92,68.09-1.47,23-1.84,48.6,10.47,69a61.48,61.48,0,0,0,25,22.76c.26.14,1.06-.26.91-.34-49-25.13-34.59-87.42-32.39-131.92C983,349.17,979,326.22,965,306.79c-13-18.14-32.61-30.44-53.74-37.06a141.4,141.4,0,0,0-65.36-4.33,119.91,119.91,0,0,0-29.31,8.72c-9.73,4.38-19,9.91-28.19,15.21-23.82,13.69-47.77,28-73.74,37.28-11.71,4.19-24.34,7.6-36.89,6.84-10.58-.64-19.77-5.47-28.4-11.33a85.17,85.17,0,0,1-32.25-41c-6.43-17.4-7.56-36.33-6.29-54.69,3.14-45.62,19.37-90,35.77-132.32,16.62-42.84,35.81-84.77,50.7-128.27,5.73-16.74,11-34,13.14-51.58,2.66-22.2-.55-45.5-8.06-66.49-15.83-44.26-52.16-78.32-95-96.27-43.22-18.08-93.22-20.26-137.23-3.56a169.08,169.08,0,0,0-30.66,15.38c-.41.26.56.18.75,0Z"/><path class="cls-10" d="M446.25-238.71c42.55-26.76,95.3-32,143.17-17.81,45.4,13.43,86.24,43.93,108.49,86.15A157.25,157.25,0,0,1,715.84-100c.29,17-3.34,33.71-8,50C696-8,678.3,32.15,662.52,72.68c-16.61,42.67-33.15,86.3-40.66,131.66-5.72,34.5-6.34,74.33,16.63,103.11A85.57,85.57,0,0,0,657.71,325c7.59,5.08,15.82,9.64,25,10.78,10.47,1.3,21.17-.71,31.21-3.61,12.24-3.55,24-8.65,35.45-14.22,22.69-11.06,44-24.62,66.37-36.27a130.16,130.16,0,0,1,64.57-14.38c23.14.73,46.64,6.95,66,19.94a90.18,90.18,0,0,1,38.26,56.48c4.7,22.31.55,45.79-.64,68.28-1.21,22.74-1.29,47.82,10.74,68a62.05,62.05,0,0,0,24.39,22.79c.26.15,1.15-.24.77-.45C971.26,476.3,986.48,414,987.49,369.26c.51-22.66-4.84-44.79-19.06-62.86-13.73-17.43-33.69-28.84-54.86-34.7a141.07,141.07,0,0,0-65.11-2.26c-21.35,4.31-39.6,15.23-58.3,25.89-23.87,13.6-48.21,27.86-74.65,35.87-11.17,3.38-23.36,5.85-35,3.64-9.62-1.82-18.75-7.6-26.43-13.46-30.05-22.9-36.83-60.7-33.88-96.4,3.72-45,19.2-88.74,35-130.71,16-42.55,34.37-84.3,48.52-127.53,5.42-16.58,10.4-33.6,12.39-51,2.5-21.78-.75-44.54-8-65.16-15.65-44.84-51.7-80.05-94.73-99.05-42.51-18.77-92-22-135.89-6.12A166.64,166.64,0,0,0,445.65-239c-.55.35.3.45.6.26Z"/><path class="cls-10" d="M452.41-240.78c42.43-26.47,94.86-31,142.25-16.32C640.11-243,680.57-211.71,703-169.37a160.79,160.79,0,0,1,18.52,72.52c.24,16.07-3.21,32-7.36,47.47C702.89-7.6,685.91,32.55,670.71,73c-15.94,42.42-31.79,85.65-39.38,130.49-5.76,34-7.29,73.49,13.67,103A81.88,81.88,0,0,0,662,324c6.94,5.31,15.15,10.56,23.65,12.86,9.65,2.61,20,1.53,29.59-.63,12.32-2.78,24.18-7.53,35.63-12.8,23.4-10.75,45.27-24.36,68-36.45,19.45-10.37,40-16.09,62.12-16.38,23.14-.3,46.87,4.88,66.87,16.79,20.45,12.17,35.47,31.43,41.35,54.6,5.6,22.1,1.84,45.58.86,68s-.9,47.08,10.58,67.21a62.71,62.71,0,0,0,24.1,23.51c.36.2,1.21-.29.75-.55C977.91,473.45,993,412.15,993,367.48c0-22.47-6.48-44.28-21.37-61.49-14.57-16.83-35.16-27.4-56.63-32.42a140.8,140.8,0,0,0-64.94.23c-21.41,5.24-40.16,17.32-59.17,28-23.33,13.09-47.55,26.88-73.73,33.31-10.72,2.64-22.57,4.09-33.24.44-8.71-3-17.11-8.56-24.13-14.44-28.59-23.95-33.5-62.43-30.2-97.5,4.22-44.79,19.22-88.31,34.54-130.33,15.39-42.23,33-83.78,46.3-126.75,5.07-16.39,9.68-33.18,11.41-50.3,2.17-21.43-1.29-43.72-8.38-64-15.65-44.65-50.87-80.34-93.33-100.32-42.67-20.09-92.95-24.43-137.6-8.21a163.38,163.38,0,0,0-30.78,15c-.55.34.25.67.64.43Z"/><path class="cls-10" d="M458.54-243c42.59-26.34,94.94-30.16,142.08-14.56,45.69,15.13,85.94,47.66,108.14,90.61a164.27,164.27,0,0,1,18.36,71.54c.35,15.74-2.89,31.49-6.74,46.67-10.44,41.15-26.48,80.8-41,120.63-15.43,42.5-30.82,85.66-38.55,130.34-5.87,33.86-8.22,73.13,11,103.42a83.69,83.69,0,0,0,38.25,31.92c19.46,8,43.15-.86,61.26-8.51,23.8-10.07,46-23.43,68.6-35.8,9.51-5.2,19.11-10.2,29.5-13.43a133,133,0,0,1,32.88-5.74c45.93-2.33,96.42,18.46,111,65.45,6.74,21.67,3.62,44.86,2.81,67.14-.84,22.84-.82,47.72,10.65,68.25a63.6,63.6,0,0,0,23.51,23.68c.29.17,1.18-.24.77-.48-46.58-27.49-31.57-87.83-32.7-132.43-.57-22.49-8.35-44.08-24.15-60.41-15.38-15.89-36.35-25.36-57.87-29.47a140.05,140.05,0,0,0-64.42,2.7c-21.14,6.07-40,18.65-59.12,29.18-23.23,12.81-48.07,26.73-74.55,31.17-10.77,1.8-21.28,1.36-31.18-3.52a89.05,89.05,0,0,1-22.11-15.2c-26.44-25.13-29.6-63.7-26-98C643.64,178,658,135,672.7,93.27s31.46-83,44-125.47c4.88-16.5,9.28-33.4,10.85-50.58,2-21.24-1.67-43.2-8.72-63.24-15.84-45-51-81.57-93.67-102.32-41.77-20.33-91.07-25.57-135.31-10.24a160.91,160.91,0,0,0-32,15.26c-.56.34.28.52.61.32Z"/><path class="cls-10" d="M464.75-245.3C508-271.81,561-274.51,608.2-257.41c45.3,16.41,84.65,49.92,106.46,93.05a166.91,166.91,0,0,1,18.14,70.1c.45,15.76-2.62,31.57-6.29,46.82-9.83,40.8-25.11,80.22-39,119.77-14.8,42.29-29.57,85.15-37.28,129.41-5.86,33.7-8.76,72.68,9,103.5,8.12,14.09,20.46,25,35,32.27,18.66,9.34,39.6,3.69,58.11-3.38,24.35-9.31,46.94-22.62,69.72-35.14,9.33-5.12,18.73-10.4,28.75-14.08a129.38,129.38,0,0,1,33.62-7.27c44.89-3.77,96.12,14.32,113,59.55,7.86,21.08,5.53,43.8,4.91,65.82-.64,23.07-.73,48.1,10.45,69A64.39,64.39,0,0,0,1036,496.42c.24.15,1.07-.24.91-.34-45.37-28.1-30.88-87-33-131.38-1.08-22.23-9.73-43.32-25.92-58.83C962.08,290.66,940.9,282,919.39,278.5a139.58,139.58,0,0,0-63.69,4.38c-21.6,6.82-41.1,20-60.91,30.67A399.69,399.69,0,0,1,757,331.92c-11.72,4.8-24.1,9-36.82,10-10.72.83-19.82-1.75-29.1-7a83.65,83.65,0,0,1-19.81-15.28c-24.57-25.92-26.54-64.35-22.87-98,4.8-44.09,18.72-87,33-128.79,14.15-41.52,30.16-82.53,42-124.79,4.56-16.25,8.6-32.86,10-49.72,1.77-21.11-2-42.8-9-62.69-16.1-45.6-51.46-83.06-94.47-104.57-41.54-20.78-90.71-26.59-135-11.21A158.74,158.74,0,0,0,464-245.35c-.41.25.55.17.75,0Z"/><path class="cls-10" d="M470.89-247.45c43.42-26.4,96.43-28.25,143.35-10.25,45.55,17.47,84.69,52.22,106.37,96,10.51,21.21,17.1,44.85,17.9,68.57.53,15.65-2.31,31.36-5.75,46.56-9.19,40.49-23.74,79.7-37,119-14.17,42-28.34,84.5-36,128.29-5.91,33.61-9.29,72.26,6.89,103.69a80,80,0,0,0,32.12,33c7.6,4.26,15.23,7.14,24,7.25,10.41.14,20.76-2.47,30.57-5.74,24.76-8.28,47.67-21.48,70.47-34,9.49-5.2,19-10.64,29-14.84a125.5,125.5,0,0,1,32.66-8.56c44.41-5.66,97.19,10,116.14,54.21,8.77,20.45,7.18,42.65,6.82,64.37-.39,23.2-.42,48.21,10.54,69.32a65.7,65.7,0,0,0,22.7,24.83c.25.16,1.08-.23.91-.35-44.55-29-29.76-86.91-33.41-131.39a83.79,83.79,0,0,0-28.88-57.15c-16.66-14.22-38.16-21.86-59.71-24.42a138.11,138.11,0,0,0-63,6.86c-9.72,3.53-18.86,8.53-27.93,13.45-11.36,6.16-22.62,12.5-34.08,18.47a326.14,326.14,0,0,1-37.22,17c-11.46,4.24-23.82,7.87-36.17,7.44-17-.59-33.74-12.4-44.51-25-23-27-23.77-65.66-19.85-99.08,5.1-43.55,18.43-86,32.1-127.45,13.53-41.09,28.75-81.76,39.88-123.6,4.3-16.17,8.08-32.67,9.35-49.39,1.59-20.84-2.26-42.1-9.16-61.73-16.19-46-51.33-84.3-94.34-106.77-41-21.42-89.83-28.26-134.16-13.39a155.69,155.69,0,0,0-31.35,14.66c-.42.25.55.19.75.07Z"/><path class="cls-10" d="M477-249.49c43.37-26.13,96.05-27.36,142.52-8.77,45.57,18.23,84.44,53.7,106.32,97.67,10.51,21.12,17.46,44.74,18.44,68.4.64,15.49-1.94,31.08-5.14,46.18-8.52,40.16-22.35,79.14-35,118.13C690.54,113.87,677,156,669.27,199.29c-6,33.62-9.79,72,4.77,104a78.47,78.47,0,0,0,28.63,33.45c6.94,4.51,14.69,8.64,23,9.77,10,1.36,20.35-.62,30-3.39,24.25-7,46.73-19.52,68.79-31.52,20.17-11,39.77-22.07,62.72-25.88,43.6-7.25,97.15,5.85,118.28,48.36,10,20.19,9.06,42.39,9,64.33-.06,23.19.13,48,11,69.13a67.24,67.24,0,0,0,22,24.71c.29.19,1.17-.22.77-.49-21.48-14.71-29.69-38.82-31.87-63.78-2-22.78.87-45.87-2.11-68.56a81.75,81.75,0,0,0-31.86-54.36c-17.44-13.18-39.23-19.78-60.83-21.43-21.19-1.61-43.15,1.33-62.77,9.65-22.2,9.42-42.71,22.78-64.32,33.44-11.88,5.86-24,11.35-36.74,15.22-10.66,3.26-22.39,5.78-33.54,3.67-8.5-1.61-16.74-6.43-23.72-11.42A76.18,76.18,0,0,1,683.84,318c-20.9-27.86-20.65-66.15-16.59-99.12,5.32-43.26,18.19-85.43,31.36-126.84C711.54,51.43,726,11.13,736.37-30.26,740.45-46.48,744-63,745-79.76c1.26-20.14-2.58-40.55-9.18-59.53-16-45.9-50.2-84.73-92.43-108.38C602.5-270.57,553-279,507.8-264.29a153.14,153.14,0,0,0-31.45,14.48c-.56.33.27.53.61.32Z"/><path class="cls-10" d="M483.1-251.67a147.14,147.14,0,0,1,72.08-20.88c24.17-.55,48.25,4.68,70.47,14.07a211.46,211.46,0,0,1,105.87,100c10.17,20.63,17.19,43.63,18.45,66.7.84,15.42-1.49,31-4.46,46.08-7.82,39.74-20.9,78.39-33,117-13,41.54-26,83.34-33.73,126.24-6.06,33.74-10.26,71.81,2.78,104.5a78,78,0,0,0,26.27,34.46c6.2,4.53,13.36,8.74,20.74,10.95,9,2.69,18.74,1.72,27.75-.23,24.14-5.2,46.64-17.41,68.25-28.94,20.18-10.77,40-23,62.6-28,42.62-9.37,96.95.75,121,40.79,11.76,19.58,11.92,41.48,12.17,63.61.26,23.16.41,47.73,10.62,69.06a69,69,0,0,0,22,26.31c.27.2,1.16-.19.89-.38-20.82-15-28.9-38.88-31.28-63.54-2.18-22.56.46-45.64-3.31-68-3.58-21.23-16.1-40-33.7-52.18-18-12.51-40.13-18.34-61.87-19.27-21.24-.91-42.91,2.76-62.25,11.74-22.36,10.39-43.39,23.43-65.73,33.91-11.63,5.45-23.61,10.48-36.1,13.61-10.37,2.59-22,4.17-32.3.36a77,77,0,0,1-36.61-28.89c-19.23-28.58-18.28-66.59-14.14-99.33,5.44-43,17.87-85,30.55-126.36,12.35-40.25,26.06-80.25,35.77-121.26,3.84-16.23,7.14-32.77,8-49.47,1-19.93-3-40-9.58-58.74-16.18-45.95-50.08-85.26-92-109.73-40.54-23.65-89.95-33.22-135.36-18.75A150,150,0,0,0,482.5-252c-.56.34.28.48.6.29Z"/><path class="cls-10" d="M489.24-253.81A144,144,0,0,1,561.5-274c24.37-.19,48.54,5.61,70.71,15.56,45.27,20.31,83.22,57.51,105,102,10,20.45,17.24,43.27,18.55,66.11.89,15.35-1.23,30.83-4,45.89C744.5-5,732.08,33.46,720.58,71.83c-12.39,41.33-24.91,82.88-32.47,125.43-6,33.65-10.26,71.18,1.46,104.12,4.81,13.51,12.76,25.79,23.92,34.91a81.29,81.29,0,0,0,19.76,11.82c8.15,3.47,16.94,3.69,25.62,2.41,24.13-3.57,46.91-15.69,68.25-26.85,20.1-10.51,40-23.09,62.09-28.84C931.29,283.91,986.1,292,1012,330.47a77,77,0,0,1,12,30.3c1.76,10.55,1.94,21.32,2.24,32,.65,23.41,1,48.16,11.45,69.67a71,71,0,0,0,21,25.61c.28.21,1.16-.2.76-.5-20.79-15.81-28.43-40.46-30.8-65.51-2.07-21.89.27-44.66-4.6-66.21-10.25-45.34-57.2-66.14-100-66A138.39,138.39,0,0,0,863.45,304c-22.78,11.13-44.55,24.24-67.84,34.34-20.09,8.72-43.94,17.79-65.09,7.7a76.12,76.12,0,0,1-32.92-29.73c-17.48-29.46-15.81-67.21-11.51-99.92,5.58-42.45,17.47-83.94,29.57-124.91,11.8-39.95,24.83-79.69,33.88-120.38,3.58-16.13,6.6-32.54,7.27-49.07.79-19.52-3.22-39-9.67-57.39-16.35-46.52-50.26-86.73-92.35-112.16-39.91-24.12-88.82-34.74-134.18-20.86a148.13,148.13,0,0,0-32,14.23c-.56.33.27.53.61.33Z"/><path class="cls-10" d="M495.38-256a140.89,140.89,0,0,1,72.24-19.56c24.36.16,48.4,6.43,70.38,16.75,45.41,21.33,83.18,59.56,105,104.6,9.71,20,17,42.26,18.53,64.56,1,15.07-.79,30.29-3.28,45.14C751.73-5.44,740,32.71,729.08,70.72c-11.84,41.16-23.9,82.46-31.42,124.68-6,33.61-10.48,70.56-.43,103.87,4.08,13.52,11,26.2,21.34,36,11,10.43,25.9,18.72,41.41,18.12,22.77-.88,45-12.11,65-22.11,11.4-5.7,22.61-11.77,33.92-17.64,9.92-5.14,19.91-10.24,30.59-13.62,41.21-13,96.31-7.57,124.87,28.25a74.56,74.56,0,0,1,14.26,29.11c2.39,10.13,2.89,20.66,3.39,31,1.13,23.52,1.39,48.13,11.18,70a73.57,73.57,0,0,0,21.13,27.49c.26.21,1.15-.17.9-.37-20.25-16.26-27.73-40.83-30.31-65.77-1.2-11.69-1.49-23.45-2.11-35.18-.54-10.12-1.17-20.46-3.94-30.26-12.54-44.5-60.73-62.75-103.15-61-21.39.88-41.12,6.82-60.15,16.36-23.14,11.61-45.54,24.8-69.68,34.3-11.3,4.44-23.32,8.41-35.54,8.89-9.33.37-17.49-2.41-25.58-6.85a74.3,74.3,0,0,1-30.3-31.23c-15.49-30.12-13.35-67.17-9-99.69,5.67-42.15,17.12-83.41,28.74-124.24,11.26-39.61,23.61-79.07,32-119.43,3.31-16,6-32.25,6.51-48.6.55-19.28-3.58-38.4-10-56.51-16.59-46.59-50.2-87.25-92-113.51-39.68-24.93-88.68-36.68-134.43-22.9a144.84,144.84,0,0,0-31.53,13.87c-.56.33.29.45.6.27Z"/><path class="cls-10" d="M501.53-258.12A137.94,137.94,0,0,1,574-277c24.42.53,48.4,7.32,70.22,18.09,45.31,22.36,82.73,61.44,104.64,106.83,9.53,19.73,16.93,41.65,18.58,63.63,1.13,15.06-.51,30.29-2.82,45.17-6,38.64-17.05,76.44-27.42,114.08-11.25,40.83-22.76,81.74-30.15,123.48-6,33.78-10.56,70.53-1.56,104.21,3.58,13.41,9.75,26.23,19.33,36.38s23.52,19.32,37.58,20.55c9.8.86,19.77-1.38,29.08-4.24,12-3.67,23.46-8.74,34.72-14.15,11.49-5.51,22.75-11.47,34.05-17.34,9.84-5.11,19.73-10.41,30.13-14.3,40.51-15.14,96.2-11.84,126.9,21.83a73.3,73.3,0,0,1,16.15,28.52c2.87,9.77,3.65,20.08,4.36,30.19,1.64,23.46,2.08,47.85,11.6,69.78a76.47,76.47,0,0,0,20.65,28c.28.24,1.19-.14.89-.4-19.79-16.8-27.05-41.5-29.81-66.46-1.3-11.7-1.74-23.47-2.66-35.2-.77-9.88-1.78-20-5.08-29.37-15.19-43.25-64.27-58.81-106.28-55.48a139.28,139.28,0,0,0-32.15,6.34c-10,3.26-19.37,8-28.69,12.74-23.06,11.78-45.8,24.86-70.4,33.24-10.51,3.58-21.9,6.62-33.1,5.65-8.35-.73-16.28-4.64-23.3-9.06a73.6,73.6,0,0,1-27.51-32c-14-30.76-11.47-67.48-7-100.06,5.71-41.71,16.68-82.59,27.76-123.13C743.4,51.39,755.07,12.3,762.8-27.62c3.1-16,5.61-32.23,5.91-48.54.33-18.68-3.7-37.06-9.91-54.63-16.63-47.06-50-88.57-91.68-115.91C627.9-272.44,579.06-285.58,533-272.31a142.23,142.23,0,0,0-32.08,13.84c-.56.32.27.55.62.35Z"/><path class="cls-10" d="M507.65-260.35a135.07,135.07,0,0,1,73-18.15c24.42,1,48.27,8.33,69.88,19.53,45.23,23.45,82.33,63.45,104.29,109.23C764-130.39,771.48-109,773.28-87.5c1.26,14.9-.13,30-2.22,44.75-5.38,38.09-15.7,75.44-25.48,112.57-10.7,40.57-21.73,81.17-29,122.51-6,33.89-10.68,70.32-3,104.33,3,13.34,8.34,26.33,17.06,37,8.56,10.46,21.14,19.52,34.37,22.9,8.52,2.18,17.65,1,26.11-.89,11.5-2.62,22.57-7,33.32-11.8,22.51-10,43.71-22.72,66.27-32.6,21.17-9.27,45-12.61,68-10.41,22.1,2.13,44.54,9.74,60.9,25.25a72.85,72.85,0,0,1,18.2,27.45c3.48,9.35,4.63,19.44,5.59,29.31,2.26,23.52,2.8,47.84,12.06,70a80,80,0,0,0,20.25,28.8c.23.21,1.13-.15.9-.36-19.45-17.5-26.45-42.54-29.41-67.7-2.5-21.25-1.28-44.58-10.15-64.49-18.37-41.25-68.73-53.42-109.89-48.15a136.63,136.63,0,0,0-30.87,7.59c-10.06,3.79-19.66,8.86-29.21,13.76-23.13,11.85-46.43,25-71.67,31.88-10.16,2.75-21.66,4.74-31.9,1.29a72.14,72.14,0,0,1-19.79-10.52c-11.2-8.36-19.32-20-24.41-32.9-12.32-31.34-9.44-67.6-4.89-100.2,5.78-41.35,16.33-81.94,26.91-122.27,10.21-38.89,21.24-77.74,28.3-117.37,2.77-15.54,4.95-31.31,5.09-47.12.17-18.42-3.89-36.39-10-53.69-16.94-47.61-50.46-90-92.28-118.21C633.64-273,585.24-287,539.16-274.18a139.32,139.32,0,0,0-32.09,13.6c-.56.33.3.4.58.23Z"/><path class="cls-10" d="M513.78-262.55a132.19,132.19,0,0,1,73.89-17.39c24.31,1.51,47.89,9.4,69.19,21,44.62,24.3,81,64.49,103.13,110,9.27,19.07,16.92,40.11,19.09,61.33,1.52,14.87.39,30-1.46,44.76C772.89-5.11,763.22,31.92,754,68.71,743.84,108.93,733.3,149.13,726.1,190c-6,34.05-10.81,70.26-4.3,104.61,2.57,13.58,7.24,27,15.41,38.26A70.78,70.78,0,0,0,768,356.74c18,7.34,38.49.07,55.52-6.8,23.23-9.36,45-21.92,67.6-32.54A143.11,143.11,0,0,1,959,303.61c22.25,1,45.16,7.34,62.66,21.6a72.34,72.34,0,0,1,19.95,25.51c4.28,9.22,6,19.27,7.3,29.28,3,23.4,3.65,47.46,12.53,69.63a84.36,84.36,0,0,0,20,29.87c.19.18,1.07-.18.91-.34-19-18.1-25.78-43.26-29-68.47-2.72-21.22-2.19-44.52-12.53-63.85-21.11-39.47-72.68-48.7-113.21-41.59-22.1,3.88-41.54,14.07-61.34,24.14-22.63,11.51-46.38,24.77-71.71,29.07-10,1.69-19.09.9-28.31-3.26a71.55,71.55,0,0,1-17.4-11c-10.35-9-17.45-20.92-21.83-33.8-10.86-31.95-7.69-68-3-100.75,5.84-41.07,16-81.43,26.12-121.6,9.69-38.51,20.07-77,26.43-116.27,2.5-15.44,4.4-31.11,4.27-46.78-.15-18.29-4.49-36-10.79-53.15-17.48-47.49-50.8-90-92.34-118.86-38.27-26.55-86.32-41.55-132.43-29a137.1,137.1,0,0,0-31.93,13.34c-.55.32.32.29.56.15Z"/><path class="cls-10" d="M520-264.77a129.26,129.26,0,0,1,73.34-16.65c24.15,1.78,47.49,10,68.53,21.79,44,24.67,79.78,64.66,102.35,109.52C773.84-131,782-110,784.74-88.7c1.86,14.27,1.16,28.83-.29,43.11-3.8,37.44-12.84,74.3-21.58,110.82-9.63,40.23-19.82,80.4-27,121.16-6.06,34.27-11,70.3-5.85,105,4,26.82,16,52.56,41.31,65.09,7,3.44,14,5.66,21.85,5.48,9.77-.22,19.42-2.88,28.6-6.05,23.83-8.2,46-20.62,68.53-31.63,10.25-5,20.58-9.66,31.61-12.64a144.66,144.66,0,0,1,36.67-5c22.53-.14,46,4.84,64.76,17.88A72.39,72.39,0,0,1,1045,348.11c5,8.88,7.49,18.62,9.14,28.62,3.87,23.52,4.65,47.68,13.39,70.14A89.44,89.44,0,0,0,1087,477.38c.17.18,1.06-.18.91-.33-18.68-19-25.23-44.64-28.77-70.24-2.92-21.1-3.35-43.93-15.26-62.38-24.1-37.35-76.74-43.54-116.71-34.41-22.54,5.15-42.8,16.88-63.35,27.07C852,343,840,348.75,827.56,353.48c-11.18,4.26-23.22,8.21-35.32,8.11-14.43-.11-28.91-8.85-38.74-19-9.52-9.84-15.58-22.41-19.21-35.5-9.1-32.88-5.47-68.85-.55-102.11,6.08-41,16-81.41,25.7-121.7,9.1-37.78,18.71-75.66,24.15-114.18,2.18-15.46,3.72-31.15,3.06-46.78C785.87-96.07,780.7-114,773.92-131c-18.62-46.78-51.85-88.9-93.18-117.69-37.71-26.26-85-41.42-130.53-29a135.67,135.67,0,0,0-30.94,12.89c-.4.23.56.13.74,0Z"/><path class="cls-10" d="M526-266.7A126.92,126.92,0,0,1,596.17-283c23.74,1.49,46.7,9.4,67.43,20.85,43.69,24.12,79.24,63.36,102.83,107,10.62,19.65,19.64,41.21,23.59,63.3,2.51,14,2.27,28.53,1.21,42.71-2.75,36.7-11,73-19.1,108.77-9.07,40.12-18.89,80.1-26.15,120.6-6.24,34.86-11.49,71.11-7.72,106.56,2.79,26.2,11.94,53.4,35.19,68.25a60.93,60.93,0,0,0,18.67,8.32c8.9,2,18.38.45,27.08-1.79,24.2-6.23,46.65-18.55,68.92-29.55,10.54-5.2,21.12-10.59,32.26-14.38a143.38,143.38,0,0,1,34-7.05c23.08-2,47.57,1.15,68.09,12.43a74.5,74.5,0,0,1,24.63,21.32c6.2,8.56,9.76,18.18,12,28.44,5.1,23.67,5.89,48.13,14.5,71a95.79,95.79,0,0,0,19.11,31.49c.26.29,1.18-.08.89-.4-18.37-19.88-24.67-46.06-28.62-72.08-3.19-21-4.78-43.2-18.27-60.62-27.34-35.26-81.49-38.5-121.17-26.8-22.9,6.76-43.88,19.52-65.38,29.65-11.73,5.53-23.68,10.82-36.12,14.57-10,3-21.28,5.6-31.68,3.1C764.51,356,748,330.22,742,303.91c-7.6-33.75-3.59-69.82,1.57-103.61,6.2-40.7,15.75-80.81,25-120.91C777.2,41.87,786.2,4.17,790.73-34.12c1.76-14.92,2.85-30.05,1.81-45.07-1.3-18.67-7.2-36.85-14.46-54-19.2-45.33-51.35-86.35-91.29-115.21-37-26.73-83.72-43.24-129.3-31.68a131.08,131.08,0,0,0-31.91,12.89c-.57.32-.05.75.41.49Z"/><path class="cls-10" d="M532.14-268.84A124.3,124.3,0,0,1,601-284.56c23.59,1.59,46.35,9.66,66.86,21.19,43.35,24.36,78.5,63.52,102.54,106.69,11,19.71,20.33,41.16,25.07,63.3,2.91,13.61,3.07,27.74,2.38,41.59C796-15.61,788.46,20.26,780.94,55.6c-8.54,40.14-18,80.1-25.19,120.5-6.28,35.3-11.65,71.75-8.82,107.67,2.05,26,9.35,54.07,31.07,70.61a67.91,67.91,0,0,0,16.49,9.16c8,3.1,15.92,3.47,24.31,2.13,23.75-3.79,46.15-15.77,67.5-26.21,21.83-10.67,43.18-21.34,67.54-24.7,22.93-3.16,47.37-1.4,68.71,8,20.53,9.09,35.63,25.48,41.49,47.26,6.25,23.27,7.25,47.58,15.51,70.39a103.67,103.67,0,0,0,18.82,32.74c.28.32,1.2-.06.88-.42-17.89-20.69-24-47.14-28.48-73.43-3.61-21.25-6.49-42.89-21.84-59.27-14.59-15.56-35.56-23.48-56.33-26.23a146.07,146.07,0,0,0-67,7c-23.33,8.21-44.89,21.21-67.5,31.14-19,8.33-42.62,18.93-63.28,10.79C768.45,352.41,755,327.71,750.13,301c-6.29-34.37-2.06-70.47,3.21-104.67,6.27-40.67,15.53-80.82,24.3-121,8.07-37,16.38-74.2,20-111.92,1.43-14.79,2.15-29.79.65-44.61-1.89-18.79-8.5-37.09-16.17-54.22-20-44.59-51.79-85.2-91.28-114.11C654.5-276.14,608.62-293.1,563.49-282a128.46,128.46,0,0,0-31.77,12.64c-.58.31-.06.81.42.54Z"/><path class="cls-10" d="M538.44-271.26A121.28,121.28,0,0,1,610-285.93c22.8,2.42,44.6,10.89,64.27,22.46,42.47,25,76.81,64,100.88,106.65,11,19.52,20.45,40.55,25.8,62.38,3.21,13.12,3.75,26.83,3.42,40.28-.9,36-7.88,71.75-14.91,106.94-7.94,39.77-16.93,79.33-24,119.27-6.24,35.5-11.68,71.93-9.8,108.08,1.35,26.05,7,55.11,27.3,73.34,9.67,8.67,22.93,15.41,36.13,15,9.75-.28,19.37-3.05,28.52-6.24a351.58,351.58,0,0,0,34.26-14.5c22.6-10.67,44.79-23.27,69.51-28.3,23.76-4.83,49.52-4.4,72.43,4.06,20.22,7.46,37.31,21.94,44.54,42.64,7.9,22.63,9,47.07,16.8,69.81A114,114,0,0,0,1104,471c.18.22,1-.19,1-.26-17.28-21.42-23.31-48-28.39-74.4-2.1-10.89-4-22-8-32.41a64.57,64.57,0,0,0-17.26-25.06C1035,324.13,1012.6,317.72,991,316.34a148.58,148.58,0,0,0-65.13,10.5c-23.9,9.75-46.35,22.7-70.39,32.16-11.25,4.43-23.24,8.64-35.44,9.1-8.23.31-15.85-2.2-23.09-6-24.41-12.61-35-38.8-38.68-64.69-5-34.77-.6-70.75,4.74-105.21,6.33-40.8,15.33-81.13,23.66-121.55,7.52-36.44,15.13-73.2,17.86-110.36,1.08-14.73,1.4-29.69-.66-44.36-2.67-19-10.1-37.57-18.32-54.81-21.07-44.2-53.14-84.73-92.94-113.5-36-26-81.12-42.36-125.46-30.83a128.41,128.41,0,0,0-29.46,11.88c-.4.22.56.11.74,0Z"/><path class="cls-10" d="M544.43-273.13a119.21,119.21,0,0,1,67.47-14.52c22.63,1.95,44.34,10.08,63.91,21.39,42.24,24.41,76.36,62.8,101.15,104.41,11.93,20,21.94,41.36,28.59,63.72,3.87,13,5.07,26.64,5.15,40.19.2,35.08-6,70.17-12.32,104.55-7.35,39.79-16,79.33-22.93,119.19-6.32,36.14-11.93,73-11,109.81.68,26.14,4.67,55.7,22.94,75.88a61.94,61.94,0,0,0,30.47,18.44c8.83,2.19,18.34.47,27-1.8,11.61-3.06,22.79-7.68,33.74-12.55,23.06-10.24,45.45-23.52,69.88-30.26,23.37-6.45,48.92-7.69,72.51-1.64,21.7,5.57,42.29,18.45,51.57,39.58,4.5,10.23,6.79,21.34,9.15,32.21,2.76,12.68,5.46,25.4,9.62,37.71A126.87,126.87,0,0,0,1109.71,469c.27.37,1.19,0,.88-.43-17-22.61-22.71-49.84-28.68-76.85-2.33-10.53-4.73-21.3-9.47-31.05A64.58,64.58,0,0,0,1052.21,337c-17.9-13-40.79-17.79-62.58-17.88-23.6-.09-46,5.69-67.42,15.33-24,10.79-47.24,23.84-72.46,31.57-9.72,3-20.71,5.67-30.87,3.37a59.37,59.37,0,0,1-18.55-8.09c-22.87-14.73-31.07-42.45-33.76-68.11-3.72-35.51.94-71.8,6.44-106.87,6.32-40.26,14.88-80.11,22.63-120.11,7-36.18,14-72.79,15.72-109.68.66-14.15.53-28.5-1.91-42.49-3.28-18.73-11.08-36.95-19.43-53.91-21.46-43.57-53-83.74-92.06-112.81-35.05-26-79.24-43.4-123.18-33a124,124,0,0,0-30.79,12c-.57.31-.06.86.44.6Z"/><path class="cls-10" d="M550.66-275.43a116.8,116.8,0,0,1,66.8-13.86c22.61,2.18,44.2,10.67,63.61,22.22,41.52,24.72,75,62.89,99.89,103.89a305.09,305.09,0,0,1,29.39,62.51c4.3,13.06,6.16,26.48,6.62,40.19,1.15,34.69-4.41,69.57-10.22,103.65C800,82.71,791.84,122,785.08,161.55c-6.23,36.45-11.86,73.5-11.56,110.58.21,26.44,3.1,56.36,19.82,78.06a61.31,61.31,0,0,0,27.59,20.1c18.3,6.7,38.2-1,55.31-8,23.87-9.7,46.45-23,70.88-31.24,23.35-7.91,49.18-10.45,73.5-6,21.75,4,43.62,14.59,55.15,34.29,5.82,9.93,8.7,21.42,11.45,32.51,3.18,12.8,6,25.68,10.22,38.21a143,143,0,0,0,17.93,36.72c.21.29,1.14,0,.9-.39-16.47-23.68-22-51.4-29.09-78.8-2.66-10.33-5.65-20.95-11.37-30.06a66.59,66.59,0,0,0-22.62-21.53c-19.28-11.42-42.72-14.65-64.79-13.45a157.12,157.12,0,0,0-35.23,6c-11.4,3.32-22.23,8.22-33,13.19-23.23,10.73-46.72,23.76-71.95,29.1-9.54,2-18.48,2-27.62-1.47a61.12,61.12,0,0,1-16.13-9.14c-21.06-16.76-27.37-45.37-29.3-70.87-2.72-36,2.07-72.55,7.62-108.09,6.28-40.27,14.53-80.2,21.77-120.3C811,25.48,817.23-10.51,818-46.67c.29-13.94-.24-28.07-3.19-41.74-4.16-19.32-12.79-38.1-21.88-55.53-22.12-42.42-53.09-81.74-91.54-110.5-34.55-25.84-78.1-43.24-121.55-32.88A122.78,122.78,0,0,0,550-275.76c-.57.31.27.51.62.33Z"/><path class="cls-10" d="M556.86-277.75a114.15,114.15,0,0,1,68.62-12.91c21.85,2.81,42.55,11.49,61.21,23,40.93,25.19,73.82,63.34,98.77,104a330.14,330.14,0,0,1,29.6,60.58,142.39,142.39,0,0,1,8.07,40.28c2,33.9-2.76,68.18-8,101.6-6.16,39.64-14,79-20.54,118.58-6.06,36.37-11.61,73.2-12,110.15-.3,27,1.54,57.49,16.71,80.85a59.85,59.85,0,0,0,25.35,22.1c6.08,2.77,12.49,4.72,19.22,4.63,9.9-.14,19.7-3,29-6.27,24.32-8.45,47-20.89,70.77-30.69,23.92-9.87,50.41-14.18,76.19-11.19,22.37,2.59,45.58,11.3,59.29,30.06,6.44,8.81,10,19.43,13,29.8,3.73,12.79,6.74,25.78,10.84,38.46,4.46,13.81,10.18,27.16,18,39.39.15.23,1-.14,1-.26-15.71-24.47-21.23-52.4-29.45-79.82-3.14-10.46-6.94-21-13.78-29.63a69.3,69.3,0,0,0-24.93-19.3c-20.69-9.79-44.75-11.54-67.24-8.95a160.23,160.23,0,0,0-33.52,7.52c-11.55,4-22.64,9.25-33.7,14.36-12.66,5.84-25.3,11.81-38.3,16.89-11.13,4.36-23,8.64-35,9.19-13.36.62-27-6.29-36.5-15.38-19.44-18.59-24.25-47.91-25.56-73.54-1.86-36.16,2.92-72.59,8.39-108.26,6.2-40.35,14.13-80.4,20.86-120.66,5.84-35,11.43-70.52,11.33-106.08,0-13.82-1-27.83-4.41-41.27-5-19.54-14.14-38.49-23.71-56.15-22.8-42-53.76-81.32-92.25-110-33.95-25.35-76.57-42.41-119.23-32.16a121.42,121.42,0,0,0-28.8,11.13c-.4.22.56.12.74,0Z"/><path class="cls-10" d="M562.92-279.83a112.07,112.07,0,0,1,66.3-12.6c21.72,2.66,42.32,11.31,60.82,22.75,40.51,25,73,62.82,98.23,102.78a364.67,364.67,0,0,1,30.63,59.45,146.89,146.89,0,0,1,10.2,41.13c3.16,33.44-1,67.52-5.62,100.61-5.48,39.19-12.76,78.1-19.09,117.15-5.94,36.68-11.5,73.7-12.54,110.9C791.08,290.08,792,321,805.5,346a61,61,0,0,0,22.33,23.89A59.28,59.28,0,0,0,844,376.44c8.38,2,17.35.37,25.55-1.76,24.58-6.39,47.42-18.7,70.57-28.84,24-10.51,48.83-17.23,75.24-16.56,23.1.58,48.06,6.63,64.79,23.56,8.2,8.29,13,18.8,16.81,29.69,4.47,12.87,7.74,26.12,11.93,39.08,4.58,14.21,10.19,28,17.79,40.93.16.27,1.07-.08,1-.26-8-13.61-13.8-28.26-18.54-43.29-4.06-12.86-7.29-26-11.86-38.68-3.69-10.24-8.46-20-16.18-27.82s-17.29-13.29-27.48-17c-22-8-46.74-8.26-69.64-4.19-24.86,4.41-47.3,15.68-70.13,25.95C901.45,362.81,889,368.33,876,372.4c-10,3.15-21.37,6.14-31.83,3.48a57.94,57.94,0,0,1-29.56-18.2c-17.61-20.42-21.08-50.15-21.84-76-1.08-36.91,3.87-73.93,9.4-110.34,6-39.62,13.43-79,19.51-118.62C827,18,832-17.26,830.92-52.41c-.4-13.51-1.75-27.19-5.61-40.2-5.77-19.41-15.1-38.14-24.92-55.77-23.17-41.58-53.77-80.7-91.88-109.57-33.17-25.13-74.78-42.57-116.84-33.1a118.25,118.25,0,0,0-29.32,11c-.57.3.3.33.57.19Z"/><path class="cls-10" d="M569.06-282a109.78,109.78,0,0,1,65.16-12.1c21.64,2.76,42.09,11.59,60.44,23.15,39.82,25.09,71.7,62.46,97,101.73a401,401,0,0,1,31.31,58.39c5.83,13.56,10.2,27,12.06,41.69,4.15,32.76.7,66.45-3.33,99.05-4.83,39-11.65,77.66-17.71,116.45-5.78,36.92-11.29,74.08-12.8,111.45-1.14,28.35-.87,59.42,11,85.78,9.78,21.67,31.09,38.91,56,35.32,10.94-1.58,21.55-5.41,31.8-9.45,12.27-4.84,24.27-10.35,36.32-15.72,12.23-5.45,24.52-11,37.41-14.76a166.19,166.19,0,0,1,39.17-6.48c23.83-1,50.14,3,69.21,18.39,19.94,16.11,25.13,43.61,32.66,66.76,4.79,14.71,10.31,29.14,17.66,42.78.13.25,1.05-.09,1-.26-7.75-14.39-13.44-29.66-18.43-45.2-4.11-12.79-7.67-25.85-13-38.2-4.45-10.29-10.45-19.47-19.28-26.51-8.46-6.74-18.52-11.25-28.91-14.1-22.9-6.28-47.74-5.21-70.73.05-25.52,5.85-48.9,18.49-72.84,28.67-19.11,8.13-42,19-62.89,11.5a56.5,56.5,0,0,1-26.92-20.48c-15.83-22.13-18.23-52.11-18.5-78.43-.39-37.09,4.55-74.16,10-110.77,5.86-39.55,12.9-78.92,18.41-118.53,4.74-34.08,9-68.86,7.06-103.34-.77-13.39-2.53-26.95-6.92-39.68-6.75-19.62-16.33-38.5-26.66-56.45-23.48-40.78-53.6-79.4-91.13-108.15-32.67-25-73.74-42.72-115.41-33.38a116.71,116.71,0,0,0-28.62,10.68c-.57.29.32.28.57.15Z"/><path class="cls-10" d="M575.12-284a108,108,0,0,1,63-11.86c21.23,2.57,41.29,11.16,59.31,22.43,39.78,24.9,71.49,62.23,97,101.12A442.34,442.34,0,0,1,827-113.72c6.2,13.56,11.35,27,13.72,41.79,5.17,32.19,2.37,65.6-1.1,97.81-4.18,38.89-10.56,77.51-16.36,116.18-5.62,37.43-11.09,75-12.87,112.88-1.35,28.73-1.46,59.82,9.14,87,8,20.44,26.08,39.91,49.64,39.85,10.27,0,20.5-3.25,30.09-6.62,12.42-4.38,24.49-9.72,36.54-15,12.65-5.56,25.28-11.43,38.39-15.8a172.77,172.77,0,0,1,38.63-8.13c24.19-2.25,51.13.14,71.82,14,21.74,14.54,28.41,41.27,36.25,64.69,4.94,14.76,10.27,29.37,17.12,43.36.19.4,1.14.11,1-.25-7.12-14.57-12.59-29.8-17.72-45.17C1117,400.1,1113,387.05,1107,375c-4.82-9.6-11.26-17.94-20.06-24.2-9.13-6.49-19.8-10.57-30.68-13-24-5.3-49.74-3.18-73.34,3.28-25.87,7.08-49.72,20.29-74.6,30.06-11.16,4.39-22.93,8.78-35,9.84-7.45.65-14.53-1-21.33-4a55.84,55.84,0,0,1-24.84-21.85C812.4,331.61,810.77,301,810.87,274c.14-37.19,5-74.29,10.29-111,5.64-39.36,12.27-78.57,17.21-118,4.23-33.73,7.88-68.2,5.1-102.2-1.07-13.16-3.2-26.45-7.91-38.84-7.34-19.27-16.87-37.82-27.24-55.61C784.7-192.22,755-230.76,718-259.9c-32.08-25.28-72.64-43.85-114.21-35.18a113.58,113.58,0,0,0-29.11,10.57c-.59.3-.06.77.41.53Z"/><path class="cls-10" d="M581.36-286.26a105.85,105.85,0,0,1,63.79-11.06c20.9,3,40.54,11.91,58.15,23.32,39.08,25.32,70.18,62.54,95.6,101.1a486.45,486.45,0,0,1,32.87,58c6.49,13.59,12.17,27.1,14.91,42,5.87,31.83,3.64,65.08.64,97.09-3.63,38.79-9.58,77.32-15.09,115.88-5.36,37.57-10.67,75.28-12.59,113.21-1.48,29.11-1.85,60.28,7.84,88.17,7.21,20.73,22.69,39.27,45.6,42.36,9.14,1.24,18.74-1.31,27.4-4,12.33-3.8,24.26-8.86,36.1-13.94,25.43-10.91,50.36-22.26,78.08-25.84,24.8-3.2,52.7-1.95,74.68,11.25,22.14,13.3,30.08,38.88,38.06,61.94,5,14.51,10.09,29,16.28,43.05.15.34,1.1,0,1-.26-6.53-14.82-11.79-30.1-17.09-45.39-4.24-12.19-8.46-24.59-14.8-35.89a63.35,63.35,0,0,0-21.45-23.19c-9.53-6-20.46-9.55-31.5-11.5-24.78-4.38-51-1.42-74.91,5.89-26,7.94-50.08,21.19-75.62,30.39-10.72,3.86-22.76,8.08-34.33,7.08a48.13,48.13,0,0,1-17.57-5.54c-9.92-5.14-17.63-13.47-23-23.19C820.82,330,819.67,299.35,820,272c.45-37.35,5.24-74.6,10.32-111.56C835.73,121,842,81.73,846.41,42.21c3.75-33.56,6.84-67.93,3.22-101.63-1.42-13.27-4.07-26.45-9.26-38.79a447.84,447.84,0,0,0-28.31-55.51c-24-40.33-53.6-79-90.62-108.26-31.63-25-71.54-43.45-112.58-34.77a112.61,112.61,0,0,0-28.1,10.2c-.58.29.27.45.6.29Z"/><path class="cls-10" d="M587.49-288.47a103.81,103.81,0,0,1,63-10.56c20.9,3.17,40.48,12.33,58,23.95,38.8,25.77,69.55,63.19,95,101.72a538,538,0,0,1,32.68,56.52c6.81,13.64,13.13,27.25,16.32,42.23,6.68,31.36,5,64.42,2.56,96.15-3,38.81-8.6,77.39-13.82,116C836.14,175,831,212.57,828.93,250.38c-1.66,29.81-2.34,61.51,6.62,90.35,6.57,21.16,20.14,39.32,42.61,44.49,8,1.85,16.21.54,24.1-1.46,12.43-3.15,24.4-8,36.22-12.95,26.38-11,52.17-23.13,80.69-27.39,25.28-3.77,54.13-3.28,76.84,9.89,21.47,12.45,30.29,36.67,38.2,58.87,5,14,9.71,28.07,15.14,41.89.12.29,1.07,0,1-.25-5.73-14.57-10.65-29.42-16-44.14-4.25-11.81-8.72-23.76-15.29-34.51A63.17,63.17,0,0,0,1096.91,353c-9.8-5.68-20.89-8.87-32-10.51-25.66-3.78-52.55,0-77.06,8-26.53,8.73-51.24,22.3-77.9,30.71-10,3.14-20.78,6-31.2,3.58a52.93,52.93,0,0,1-15.49-6.2c-9.41-5.7-16.42-14.43-21.25-24.22-12.53-25.35-13.32-56-12.85-83.67.66-37.74,5.38-75.37,10.3-112.75,5.21-39.56,11.11-79.05,15-118.77,3.25-33.26,5.75-67.39,1.3-100.66A137.74,137.74,0,0,0,845.21-100a509.76,509.76,0,0,0-29.53-55.85c-24.13-39.75-53.24-78.06-89.67-107.33-31.21-25.07-70.76-43.91-111.6-35.33a110.73,110.73,0,0,0-27.5,9.87c-.57.29.3.34.58.2Z"/><path class="cls-10" d="M593.55-290.45c18.89-9.51,39.87-13.41,60.87-10.37,20.65,3,40,12,57.26,23.42,38.3,25.38,68.58,62.29,94,100.08a598,598,0,0,1,33.72,56.6c7.28,13.89,14.58,27.88,18.44,43.16,7.77,30.73,6.82,63.55,4.9,94.94-2.39,38.9-7.52,77.59-12.45,116.22-4.87,38.16-9.92,76.38-12.13,114.8-1.74,30.15-2.58,61.91,5.49,91.31,5.72,20.82,17.65,40.4,39.4,46.87,18.76,5.59,38.81-3.36,56.07-10.2,27-10.69,53.26-23.55,82-28.8,25.92-4.74,55.69-5.53,79.74,6.83,21.73,11.16,31.75,34,39.77,55.79,5.07,13.82,9.53,27.85,14.35,41.76.16.44,1.12.17,1-.26-5-14.45-9.62-29.05-15-43.38-4.2-11.27-8.86-22.58-15.53-32.65-12.67-19.15-33-28.2-55.34-30.87-26.49-3.17-54.07,1.27-79.13,10-26.73,9.34-52,23.11-79.5,30.35-9.13,2.42-18.06,3.56-27.24,1a49.91,49.91,0,0,1-14.56-6.75c-9.11-6.23-15.61-15.46-20-25.46-11.7-26.47-12.08-57.58-11.37-86,.93-38,5.56-75.77,10.28-113.4,4.94-39.3,10.4-78.57,13.71-118,2.79-33.19,4.72-67.34-.65-100.38A141.56,141.56,0,0,0,849.5-102.8,588.35,588.35,0,0,0,819.93-157c-24.08-39.2-52.58-77.14-88.22-106.6-30.56-25.25-69.45-45-110.11-37.27A107.72,107.72,0,0,0,593.12-291c-.58.3-.06.82.43.57Z"/><path class="cls-10" d="M599.77-292.78a100.12,100.12,0,0,1,61.35-9.63c20.35,3.37,39.32,12.61,56.23,24.17,37.76,25.8,67.56,62.72,92.89,100.33,12.3,18.27,23.64,37.19,34.09,56.57,7.32,13.59,14.93,27.28,19.16,42.21,8.66,30.56,8.26,63.56,6.77,95-1.83,38.74-6.53,77.31-11.13,115.8S849.66,208.43,847.4,247c-1.79,30.54-2.77,62.49,4.65,92.43,5.12,20.69,15.92,41.37,37.32,48.63,17.32,5.87,35-.8,51.38-6.93,28-10.5,55.07-24,84.57-30,26.18-5.32,56.3-7,81.14,4.53,21.85,10.18,32.93,31.84,41,53.41,5,13.36,9.1,27.05,13.21,40.71.09.3,1.06,0,1-.26-7.46-24.77-14.23-51.89-29.49-73.26-13.77-19.29-35.49-27.35-58.51-29.11-26.89-2.06-54.38,3.21-79.61,12.39-14.28,5.2-28.26,11.2-42.38,16.83-12.52,5-25.33,10.2-38.64,12.69a45.73,45.73,0,0,1-36.91-9c-8.56-6.71-14.43-16.16-18.43-26.16-10.86-27.11-11-58.3-10.21-87.05,1.07-38.41,5.62-76.67,10.15-114.8,4.69-39.43,9.78-78.85,12.54-118.48,2.3-33.05,3.67-67.16-2.63-99.88a147.87,147.87,0,0,0-13.81-39.16q-14.13-28-30.8-54.65c-24.25-38.77-52.49-76.52-87.9-105.83-30.29-25.07-68.86-44.56-109.15-36.44A107.58,107.58,0,0,0,599.19-293c-.58.29.3.37.58.23Z"/><path class="cls-10" d="M605.9-295a98.41,98.41,0,0,1,61.54-9c19.94,3.65,38.43,13,54.94,24.48,37.54,26.19,67,63.36,92.39,101,12,17.88,23.23,36.35,33.7,55.19,7.59,13.66,15.76,27.42,20.51,42.38,9.47,29.83,9.74,62.43,8.8,93.41-1.17,38.66-5.41,77.17-9.69,115.58-4.32,38.74-9.05,77.49-11.4,116.42-1.89,31.28-3.07,63.85,3.82,94.65,4.58,20.51,14.22,42.14,35,50.36a44,44,0,0,0,16.22,3.33c10.63-.08,21.26-3.75,31.17-7.22,28.85-10.1,56.42-23.92,86.39-30.63,27.06-6.06,58.57-8.83,84.58,2.87,20.72,9.32,32.33,29.23,40.17,49.64,5,13.1,8.8,26.66,12.28,40.25.06.22,1,0,1-.26-6.24-24.31-13-50.85-28.73-71-14.49-18.57-36.67-25.6-59.53-26.69-27.84-1.33-55.74,4.89-81.74,14.46-14.61,5.37-29,11.44-43.49,17-12.31,4.71-25.33,10-38.58,11-11.49.94-23.52-3.72-32.13-11.23-8.23-7.18-13.65-17-17.34-27.16-10.14-27.92-10-59.43-9.12-88.73,1.22-38.37,5.58-76.61,9.85-114.74,4.43-39.56,9.16-79.15,11.39-118.92,1.85-33.06,2.68-67.29-4.53-99.82-3.1-14-8.49-26.38-15.14-39q-14.52-27.53-31.08-53.91c-24.41-38.73-52.47-76.66-87.74-106.24-29.8-25-67.81-44.66-107.73-36.78a106,106,0,0,0-26.35,9.1c-.57.28.32.26.56.14Z"/><path class="cls-10" d="M612-297c18.56-9.07,39.11-12.46,59.53-8.88,19.72,3.46,38,12.63,54.32,24,37.19,25.92,66.33,62.81,91.59,100,12.23,18,23.63,36.54,34.44,55.41,8,13.9,16.83,27.94,22.28,43.07C884.74-54,885.64-21.22,885.2,9.75c-.55,38.72-4.37,77.35-8.34,115.85-4,39-8.55,77.89-10.93,117-1.92,31.66-3.19,64.42,3,95.71,4.07,20.54,12.62,43.37,33,52.66a49,49,0,0,0,14.23,3.95c9.72,1.2,19.86-2,29-4.89,28.88-9.25,56.2-22.92,85.66-30.42,27.59-7,59.68-11.3,87.06-1.14,21.63,8,34.68,26.69,42.83,47.49,5,12.82,8.43,26.22,11.29,39.67.08.35,1,.11,1-.26-5.13-24.05-11.83-50.34-28.35-69.38-15.2-17.54-37.82-23.39-60.31-23.8-29.27-.53-58,6.92-85.27,17.06C984.43,374.67,970,380.68,955.3,386c-11.27,4.07-24,9.1-36.2,8.57-23.55-1-38.41-20.18-45.19-40.94-9.38-28.74-9.06-60.59-8-90.45,1.36-38.76,5.62-77.38,9.67-115.92,4.15-39.54,8.46-79.13,10.08-118.87C887-4.27,887.18-38.13,879.21-70c-3.52-14-9.53-26.37-16.46-39-9.82-17.88-20.09-35.52-31-52.76-24.55-38.78-52.4-76.93-87.5-106.88-29.2-24.9-66.52-45-106-37.69a103.12,103.12,0,0,0-26.62,8.95c-.6.29-.06.64.39.42Z"/><path class="cls-10" d="M618.12-299.1c18.12-8.76,38.13-12,58-8.61s38.15,12.79,54.43,24.32c36.91,26.13,65.71,63.1,90.92,100.18C833.65-165.34,845-147,856-128.32c8.2,14,17.48,28.06,23.49,43.18,11.45,28.79,13,61.25,13.11,91.86.11,38.78-3.28,77.51-6.93,116.07-3.71,39.3-8.06,78.57-10.45,118-1.94,32-3.28,64.94,2.29,96.68,3.59,20.44,11,44.12,30.58,54.65,12.33,6.63,25.33,6,38.55,2.32,29.84-8.22,57.71-22.35,87.58-30.56,28.23-7.75,61-13.3,89.53-4.08,21.65,7,35.66,24.29,43.82,44.92,4.93,12.46,7.94,25.61,10.18,38.8.08.44,1,.19,1-.26-4-23.53-10.47-49.16-27.27-67.08-16-17-39.18-21.82-61.71-21.57-30.82.35-60.71,9.15-89.36,19.83-15,5.58-29.82,11.68-45,16.65-10,3.28-20.92,6.82-31.57,5.28-22.81-3.3-35.5-22.3-41.58-43-8.68-29.54-8.16-61.75-7-92.22,1.47-39,5.58-77.85,9.37-116.67,3.86-39.53,7.76-79.13,8.8-118.85.84-32.52.44-66.36-8.48-97.89-3.91-13.81-10.42-25.82-17.47-38.22-10.13-17.84-20.56-35.5-31.59-52.8-24.42-38.31-51.72-76.11-86.11-106.15-28.7-25.07-65.57-45.8-105-39.05a101.66,101.66,0,0,0-27,8.84c-.59.29-.06.79.43.56Z"/><path class="cls-10" d="M624.34-301.43a93.46,93.46,0,0,1,59.11-7.76c19.5,3.92,37.41,13.56,53.33,25.23,36.13,26.5,64.32,63.26,89.26,100C838.18-166,849.6-147.61,860.69-129c4.86,8.14,9.65,16.32,14.44,24.5a168.35,168.35,0,0,1,9.76,18.2c12.17,28.2,14.36,60.41,15,90.74.74,39.05-2.25,78.11-5.6,117-3.41,39.56-7.55,79.08-9.89,118.73-1.9,32.38-3.28,65.58,1.92,97.74,3.3,20.41,10,44.63,29.08,55.85,10.77,6.32,22.87,6.86,34.83,4,13.34-3.14,26.25-8.21,39.07-13,16-5.95,31.94-12,48.32-16.81,28.9-8.45,62.2-15.27,91.93-7,21.53,5.95,36.48,21.76,44.66,42.17,4.9,12.24,7.54,25.27,9.21,38.3,0,.27,1,.07,1-.26-3-23.42-9.33-49-27.13-65.79-17.22-16.26-41.84-19.37-64.57-18.06-31.18,1.81-61.13,11.43-90.24,22.15-14.77,5.44-29.43,11.36-44.53,15.83-9.18,2.72-18.49,4.89-28,3.1-22.39-4.2-33.82-24.53-39.27-44.91-8-29.87-7.41-62-6.26-92.65,1.48-39.51,5.46-78.89,9-118.25s7.06-79.12,7.55-118.81c.39-32.6-.55-66.62-10.44-98-4.42-14-11.74-26.16-19.14-38.76-10.41-17.73-21-35.39-32.09-52.69-24.51-38.16-51.63-76-85.91-106.07C725-296.56,688.64-317,649.75-310.18a101,101,0,0,0-26,8.52c-.58.28.3.37.59.23Z"/><path class="cls-10" d="M630.47-303.6a92,92,0,0,1,58.67-7.3c19.49,4.11,37.32,14,53.12,25.88,35.66,26.79,63.41,63.54,88.19,100.19,12.19,18,23.69,36.52,35,55.13,4.87,8,9.7,16.09,14.57,24.12,3.65,6,7.43,11.93,10.4,18.33,13,27.94,15.7,60.25,16.7,90.62,1.3,38.93-1.28,77.93-4.29,116.73-3.08,39.67-7,79.29-9.26,119-1.88,32.94-3.3,66.62,1.6,99.37,3.07,20.5,9.17,45.48,28.09,57.21,9.63,6,21,7.24,32,5,12.31-2.47,24.24-7,36-11.22,16.31-5.89,32.57-12,49.16-17.08a306.28,306.28,0,0,1,48.37-11.13c15-2.05,30.67-2.71,45.6.53,21.55,4.67,37.77,18.71,46.17,39,5,12.19,7.34,25.33,8.48,38.41,0,.24,1,.05,1-.26-2-22.93-7.92-47.92-26-63.68s-43.76-17.58-66.69-15.43c-31.93,3-62.62,13.43-92.59,24.29-14.26,5.17-28.48,10.78-43.16,14.65-8.15,2.15-16.21,3.36-24.52,1.61-22-4.63-32.63-25.72-37.68-45.78-7.65-30.33-7-62.77-5.88-93.79,1.47-39.85,5.27-79.58,8.56-119.31,3.28-39.58,6.39-79.29,6.36-119,0-32.56-1.5-66.57-12.09-97.65-4.79-14-12.6-26.18-20.22-38.81-10.67-17.69-21.35-35.39-32.54-52.76-24.45-38-51.2-75.81-85-106.08-28-25-64-46-102.92-39.35a99.07,99.07,0,0,0-25.67,8.3c-.58.27.3.34.57.21Z"/><path class="cls-10" d="M636.53-305.62a93,93,0,0,1,66.14-5.23c22.6,6.58,42.62,20.24,60.12,35.66,38.79,34.18,68.49,78.21,95.27,122,6.09,10,12,20,17.88,30.13,5,8.61,9.54,17.67,15,26a136.33,136.33,0,0,1,18.12,42.65c9.63,39,9.21,80.31,7.68,120.16-1.77,45.92-6.28,91.68-9.84,137.48-3.11,40-6.31,80.61-3.2,120.74,1.16,15,3.23,30.2,8.27,44.43,3.72,10.51,9.34,20.82,18.36,27.68A38.54,38.54,0,0,0,959,403.74c13.41-2,26.47-7,39.23-11.37,35.66-12.31,71.82-26.25,109.65-30,16.75-1.64,34.61-1.19,50.18,5.9s26,20.69,31.34,36.75c3.42,10.34,4.85,21.24,5.35,32.09,0,.38,1,.17,1-.26-.9-19.42-4.93-40.21-18.13-55.25-10.24-11.66-24.82-17.68-40-19.71-17.58-2.35-35.59-.08-52.85,3.45-19.23,3.94-38,9.76-56.61,16-16.24,5.46-32.32,11.47-48.68,16.56-11.09,3.45-22.7,7.33-34.32,4.38C919.45,395.83,910.74,367.08,907,344c-6.15-38.07-3.53-77.6-1-115.87,3.08-46,7.79-91.86,10.45-137.88,2.42-41.72,4-84.35-2.66-125.78-2.62-16.46-6.66-33-13.94-48-3.29-6.8-7.61-12.93-11.35-19.47-5.28-9.22-10.56-18.45-15.93-27.62-26-44.42-54-88.67-89.56-126.15-29.94-31.56-70.61-63.29-116.84-58a96.9,96.9,0,0,0-30.1,8.75c-.6.28-.06.7.41.49Z"/></g><g class="cls-9"><path class="cls-10" d="M281.51,696.6a93.18,93.18,0,0,1-61.45,26.77c-23.78,1.08-47.4-5.51-69.19-14.53C102.22,688.68,59.07,656,18.73,622.71c-16.27-13.44-31.68-28.19-48.4-41.05-11.88-9.14-21.4-21.09-29.46-33.64-20.62-32.1-33.43-69.1-44.7-105.32-13-41.77-23.45-84.27-34.5-126.58-10-38.35-20-77-34.61-114-5.62-14.21-12-28.3-20.25-41.18-6.3-9.81-13.95-19.33-23.95-25.59a41.26,41.26,0,0,0-28.29-6c-11.68,1.77-21.63,9.88-30.82,16.78-31.7,23.78-61.37,50.65-96.48,69.52-16.42,8.82-34.74,16.47-53.67,16.62-18.43.15-34.62-8.27-46.24-22.41-7.5-9.13-12.94-19.75-17.33-30.67-.15-.39-1.11-.11-1,.26,7.59,18.91,19,38.19,37.88,47.61,14.85,7.41,31.86,7,47.58,2.77,18.79-5,36.19-14.66,52.45-25.15,17.56-11.33,34.11-24.15,50.48-37.12,13.1-10.36,26-21.31,40.06-30.33,4.71-3,9.53-5.84,15.07-6.93a40,40,0,0,1,16.27.07c24.86,5.44,39.59,32.75,49.41,53.78,16.18,34.63,26.36,72,36.26,108.86,11.5,42.77,21.86,85.85,34.21,128.39,11,38,23.27,76.51,42.14,111.51,7.54,14,16.32,27.58,27.38,39.07,5.19,5.39,11.12,9.65,16.73,14.52,7.93,6.88,15.85,13.77,23.82,20.59C38.32,640.88,79.59,673.87,125.87,698c38.91,20.26,88.25,37.36,130.64,17.13a96.55,96.55,0,0,0,25.79-18.28c.42-.41-.52-.49-.79-.23Z"/></g><path class="cls-11" d="M625.56,198.37c.82,47.65,71.7,47.64,72.5,0C697.25,150.72,626.37,150.72,625.56,198.37Z"/></g></g></g></svg>