<?xml version="1.0" encoding="UTF-8" standalone="no"?>
<!DOCTYPE svg PUBLIC "-//W3C//DTD SVG 1.1//EN" "http://www.w3.org/Graphics/SVG/1.1/DTD/svg11.dtd">
<svg width="100%" height="100%" viewBox="0 0 100 100" version="1.1" xmlns="http://www.w3.org/2000/svg" xmlns:xlink="http://www.w3.org/1999/xlink" xml:space="preserve" xmlns:serif="http://www.serif.com/" style="fill-rule:evenodd;clip-rule:evenodd;stroke-linejoin:round;stroke-miterlimit:2;">
    <g transform="matrix(0.685542,0,0,0.685542,-308.473,-174.637)">
        <path d="M451.198,377.173C450.904,378.289 451.145,379.478 451.85,380.391C452.554,381.305 453.643,381.841 454.797,381.841C464.492,381.841 486.056,381.841 493.691,381.841C495.323,381.841 496.764,380.778 497.247,379.219C499.801,370.958 507.513,346.02 507.513,346.02C507.513,346.02 520.411,372.132 524.183,379.767C524.81,381.037 526.103,381.841 527.519,381.841C534.423,381.841 554.87,381.841 562.386,381.841C564.05,381.841 565.512,380.736 565.966,379.134C570.049,364.741 589.226,297.126 594.497,278.542C594.815,277.42 594.589,276.213 593.885,275.282C593.182,274.352 592.083,273.805 590.916,273.805C581.528,273.805 561.367,273.805 554.238,273.805C552.695,273.805 551.313,274.756 550.762,276.198C547.616,284.427 537.435,311.063 537.435,311.063C537.435,311.063 525.883,283.901 522.43,275.782C521.846,274.409 520.498,273.517 519.005,273.517C511.557,273.517 489.286,273.517 481.323,273.517C479.632,273.517 478.154,274.657 477.724,276.292C473.889,290.876 456.06,358.682 451.198,377.173Z" style="fill:rgb(31,41,55);"/>
    </g>
</svg>
