<svg version="1.1" id="Layer_1" xmlns="http://www.w3.org/2000/svg" xmlns:xlink="http://www.w3.org/1999/xlink" x="0px" y="0px"
	 viewBox="0 0 800 500" style="enable-background:new 0 0 800 500;" xml:space="preserve">
<style type="text/css">
	.st0{fill:url(#SVGID_1_);}
	.st1{clip-path:url(#SVGID_3_);}
	.st2{fill:url(#SVGID_4_);}
	.st3{opacity:0.9;}
	.st4{fill:url(#SVGID_5_);}
	.st5{fill:#1C2635;}
	.st6{fill:#56606D;}
	.st7{fill:url(#SVGID_6_);}
</style>
<g>
	<g id="BACKGROUND">
		
			<linearGradient id="SVGID_1_" gradientUnits="userSpaceOnUse" x1="-201.4608" y1="505.5488" x2="678.5392" y2="-82.4512" gradientTransform="matrix(-1 0 0 -1 578 502)">
			<stop  offset="0" style="stop-color:#364354"/>
			<stop  offset="8.000000e-02" style="stop-color:#313D4D"/>
			<stop  offset="0.41" style="stop-color:#1F2937"/>
			<stop  offset="0.73" style="stop-color:#141D29"/>
			<stop  offset="1" style="stop-color:#101924"/>
		</linearGradient>
		<rect class="st0" width="800" height="500"/>
	</g>
	<g id="OBJECTS">
		<g>
			<defs>
				<rect id="SVGID_2_" width="800" height="500"/>
			</defs>
			<clipPath id="SVGID_3_">
				<use xlink:href="#SVGID_2_"  style="overflow:visible;"/>
			</clipPath>
			<g class="st1">
				
					<linearGradient id="SVGID_4_" gradientUnits="userSpaceOnUse" x1="-413.9397" y1="454.3527" x2="345.0332" y2="454.3527" gradientTransform="matrix(-0.99 -0.14 0.14 -1 474.59 513.15)">
					<stop  offset="0" style="stop-color:#F0824E"/>
					<stop  offset="0.24" style="stop-color:#F0824E"/>
					<stop  offset="1" style="stop-color:#EFBF53"/>
				</linearGradient>
				<path class="st2" d="M753.3,236.5c9.9-54.8-14.7-96.6-54.3-112.5c-87.8-33.5-140,112.4-223.9,8C425.4,78.3,421,71.8,369.4,80.8
					c-229.4,53.1-210.2-283.5,0.1-271.5c247.7-18.6,701.1,191.5,531.5,493C839.9,367.5,733.3,331.9,753.3,236.5"/>
				<g class="st3">
					
						<linearGradient id="SVGID_5_" gradientUnits="userSpaceOnUse" x1="-210.0352" y1="79.2996" x2="586.4849" y2="79.2996" gradientTransform="matrix(-0.85 -0.52 0.52 -0.85 393.83 683.0601)">
						<stop  offset="0" style="stop-color:#1C2635"/>
						<stop  offset="1" style="stop-color:#1C2635"/>
					</linearGradient>
					<path class="st4" d="M609.2,719.3c-45.3-7.3-26.5-80.8-19.3-111.5c18.3-67.9,95.6-158.7,44.8-215.7
						c-91.7-102.9-166.9,152.3-257.4,85c-48.4-35.6-14.4-129-66.3-163.8c-81.7-50.4-128,126.1-217.2,86.2
						c-26.8-13.6-22.7-34.5-38.8-56.1C24.3,298-29.8,314.6-71.2,339c-60.3,36.2-61.9,105.5-49.8,171.6
						c42.9,180.2,343,370.1,525.8,302.9c38.3-14.6,77.9-31.3,117.4-48c24.5-11.3,61.8-14.7,83.4-30.8"/>
					<path class="st5" d="M609.8,718.8c-40.4-7-29.1-64.8-23.2-92.5c1.6-7.7,3.2-15.5,5.5-23c3.4-10.8,7.5-21.4,12.2-31.7
						c10-22.4,21.4-44.1,31.1-66.6c8.8-20.6,17-42.8,17.3-65.5c0.3-20.4-7.3-38.3-21.7-52.7c-9.2-9.2-20.5-17.1-33.6-19.4
						c-11-1.9-22.1,0.3-32.2,4.8c-25.3,11.2-45.2,33.1-64.1,52.6c-19.6,20.1-39.5,42.9-64.9,55.9c-10.7,5.5-22.7,8.6-34.7,6.5
						c-14.6-2.6-28.2-12.2-36.5-24.4c-11.4-16.6-14.5-37.6-17.1-57.1c-2.7-20.2-4.2-41-11.4-60.2c-6.4-17.2-18.1-31.5-35.4-38.3
						c-12-4.7-25.3-4.9-37.4-0.5c-13.3,4.7-24.9,13.4-35.4,22.6c-12.1,10.6-23.2,22.3-34.7,33.6c-21,20.5-47.3,44.9-79.2,41.5
						c-9-0.9-17.6-3.8-25.2-8.6c-10.5-6.8-16-16.9-20.6-28.2C60.1,346.5,47.5,326,24.8,318c-20.1-7.1-42.3-3.1-61.9,4
						c-21.9,7.9-43.9,19.7-59.9,36.9c-33.1,35.7-34.4,87.8-28.1,133.4c1.4,10.9,3.6,21.7,6.8,32.3c2.8,8.9,6,17.6,9.8,26.1
						c8.1,18.2,17.9,35.7,29.2,52.1c25,36.7,56.2,69,90.2,97.4c35.9,30,75.2,55.7,117.1,76.6c40.4,20.2,83.4,36,127.8,44.5
						c39.6,7.6,81,9.4,120.7,0.8c25.4-5.5,49.3-16.2,73.3-25.9c15.8-6.4,31.6-13,47.3-19.6c13.9-5.8,27.7-12.4,42.1-16.9
						c22.5-7,47.7-10.6,67.2-24.8c0.9-0.6-1.1-0.7-1.5-0.3c-21,15.3-48.8,18-72.8,26.5c-14.7,5.2-28.9,12-43.2,18
						c-15.5,6.5-31,12.9-46.6,19.2c-23.2,9.4-46.4,19.3-71.1,24c-19.8,3.7-39.9,5.1-60,4.3c-43.8-1.5-87.1-12-128-27.3
						c-43.6-16.4-85-38-123.4-64.3c-37.6-25.6-72.6-55.3-102.9-89.2c-27.2-30.5-51.1-64.7-66.4-102.8c-3.5-8.6-6.5-17.5-8.9-26.5
						c-3-11.2-4.5-22.9-5.8-34.4c-2.6-23.9-2.9-48.5,2.7-72c5.6-23.2,17.4-44.5,35.8-60c9.7-8.2,20.9-14.5,32.3-20
						c10.7-5.3,21.9-9.3,33.5-12.1c22.9-5.2,47.2-2.5,64.7,14.5c8.9,8.7,15.3,19.6,20.1,31c4,9.7,7.6,19.7,15.2,27.3
						c11.7,11.6,29.7,16.5,45.8,14.9c13.9-1.4,26.8-7.7,38.1-15.5c25.9-17.9,45.4-43.2,69.4-63.4c10.8-9,22.9-17.5,36.7-20.8
						c14.5-3.4,30.2,0.4,42.1,9.2c16.1,11.9,23.5,30.7,27.5,49.7c4.2,20.2,5.2,40.9,9.2,61.1c3.5,18.1,9.8,36.6,24.1,49
						c9.4,8.1,21.2,13.7,33.7,14.2c24.6,1,46.3-16.2,63.5-31.9c22-20,41.1-42.9,63.5-62.4c18-15.7,41.5-32.2,66.7-25.2
						c14,3.9,26,14.1,35.1,25.1c13.7,16.6,17,37.8,14,58.7c-3.4,22.9-12.7,44.7-22.3,65.6c-10,21.7-21.1,42.9-30.1,65
						c-6.8,16.9-11.1,34.3-14.4,52.2c-3.3,17.6-5.9,36.5-2.2,54.2c3.1,15.1,12.3,26.9,28.1,29.6
						C609.2,719.9,610.9,718.9,609.8,718.8L609.8,718.8z"/>
				</g>
				<g>
					<path class="st6" d="M890.1,259.2c-35.7-26.2-87.5-33.2-129-17.3c-9.2,3.5-17.5,8.6-25.9,13.6c-11.3,6.8-22.5,13.7-33.8,20.4
						c-25.4,14.8-52.5,30-81.6,35.8c-12,2.4-24.9,3-36.5-1.6c-5.8-2.3-11-6.7-15.8-10.6c-4.6-3.7-8.9-7.8-12.8-12.2
						c-14-15.9-22.6-35.9-24.4-57c-2.1-22.6,2.2-45.4,8.7-66.9c7.4-24.5,17.8-47.9,29.2-70.8c22.8-45.9,50.5-89.2,72.9-135.3
						c8.4-17.3,16.6-35.5,19.7-54.7c3.9-24.1,2.6-49.2-6.6-71.9c-17.1-42-57.9-67.6-100.6-77.7c-46.5-10.7-95.1-6.2-138.8,12.9
						c-10.7,4.7-21,10.4-30.6,17c-0.4,0.3,0.6,0.2,0.7,0.1l0,0c41.4-28.2,93.7-39.3,143.3-33.8c44.6,4.9,90.7,24.6,115.7,63.5
						c12.4,19.4,18.2,42,18.2,64.9c0,21.9-5.2,42.2-13.7,62.3c-8.9,21-19.9,41-30.9,60.9c-12.7,23-25.8,45.7-38.2,68.9
						c-12.2,22.9-23.7,46.2-33.1,70.4c-8.4,21.7-15.1,44.4-17,67.7c-1.6,20.6,1.1,41.8,10.8,60.3c4.9,9.3,11.3,17.8,18.8,25.1
						c8,7.8,17.6,16.2,28.6,19.2c23.2,6.3,49.1-3.5,70.1-12.8c25.5-11.3,49.3-26.1,73.1-40.5c9.2-5.6,18.3-11.5,28.3-15.6
						c10.6-4.3,21.8-7.1,33.2-8.2c23.6-2.5,47.4,0.7,69.5,9.4"/>
					<path class="st6" d="M890.4,257.9c-37-23.7-89.6-29-129.7-9.7c-9.4,4.6-18.3,10.2-27.2,15.7c-11.9,7.2-23.7,14.5-35.8,21.4
						c-12.9,7.5-26.2,14.1-39.8,20c-12.6,5.2-25.8,9.7-39.5,10.9c-11.8,1.2-23.6-1.6-33.7-7.9c-9.7-5.8-18.5-13.1-26-21.6
						c-13.2-15.4-20.1-34.8-21.4-55c-1.4-22,3-44.1,9.5-65.1c7.5-24.5,17.9-48.1,29.1-71.2C598,49.9,624.5,6.7,646.1-38.9
						c8.1-17,15.9-34.8,19.5-53.4c4.6-23.8,3.7-49.2-4.6-72.2c-15.6-43-55.4-70.6-98.3-82.2c-47-12.5-96.8-8.9-141.5,10.2
						c-10.8,4.7-21.2,10.3-30.9,16.9c-0.5,0.4,0.3,0.6,0.6,0.4l0,0c41.6-28.2,94.3-38.7,143.9-32.3c45,5.8,91,26.9,115.3,66.8
						c12.6,20.6,17.9,44.7,17,68.8c-0.7,20.8-6.2,40.2-14.2,59.3c-18.9,45.1-45,87.1-67.4,130.5c-11.7,22.7-22.8,45.7-31.9,69.6
						c-8.2,21.5-15,43.9-17.1,66.9c-1.8,19.6,0.1,39.9,8.7,57.8c9.2,19,25.4,34,44,43.8c20.5,10.8,46.3,2.9,66.2-5.1
						c26.2-10.5,50.5-25.4,74.5-40.1c9.5-5.8,18.9-11.8,28.8-16.9c10-5,20.7-8.5,31.7-10.3c23.5-4,47.6-2.1,70.3,5.5"/>
					<path class="st6" d="M893.3,259.1c-37.3-22.4-89.6-26.5-128.8-6.1c-22.3,11.6-43.1,26-65.1,38.1c-12.7,7.2-25.9,13.4-39.5,18.8
						c-12.2,4.6-25.1,8.4-38.2,8.6c-12.3,0.2-22.3-4.1-32.4-10.7c-9.2-6-17.3-13.4-24.1-22c-12.3-15.9-18.1-35.4-18.8-55.3
						c-0.8-22,3.8-43.9,10.2-64.8c7.4-24.3,17.5-47.7,28.4-70.6C606.3,50,631.8,6.9,652.6-38.6c7.7-16.9,15.2-34.5,18.6-52.8
						c4.4-23.8,3.1-49.2-5.2-72c-15.7-43-54.9-71.4-97.8-83.7c-46.6-13.2-96.4-10.1-141,8.7c-10.7,4.6-21,10.2-30.7,16.6
						c-0.5,0.4,0.3,0.7,0.6,0.4l0,0c41.5-27.8,93.8-37.9,143-31c45.4,6.4,91,28.5,115.2,69c12.5,20.9,17.9,45.1,17.1,69.3
						c-0.6,20.4-5.8,39.4-13.5,58.3C640.9-11,615.9,30.8,594.3,73.8c-11.5,22.8-22.4,46-31.3,70c-8,21.3-14.5,43.4-16.9,66
						c-2,19.4-0.7,39.6,7.1,57.7c8.2,18.9,23,33.6,40.5,44c8.7,5.3,18.7,8,28.9,7.6c12.3-0.4,24.4-3.8,35.9-8.1
						c26.5-9.8,51-24.6,75-39.2c19-11.5,37.4-23.6,59.5-28.3c23.4-4.8,47.6-3.6,70.4,3.3"/>
					<path class="st6" d="M895.9,260.2c-38.1-21.1-88.9-23.4-127.5-2.5c-22.5,12.2-43.8,26.6-66.4,38.6
						c-12.8,6.8-25.9,13.1-39.5,17.8c-12,4.1-25,7.4-37.9,6.3c-11.5-0.9-21.3-6.5-30.5-13.2c-8.5-6-15.9-13.4-22-21.8
						c-11.5-16.2-16.5-35.9-16.8-55.6c-0.3-22,4.4-44,10.8-64.9c7.3-24,17.1-47.2,27.7-70C614.6,50,639.2,7,659-38.2
						c7.4-16.8,14.4-34.1,17.6-52.2c4.2-23.6,2.6-48.7-5.5-71.3c-15.6-43.2-54.2-72.4-97.1-85.6c-45.5-14-96.4-11.7-140.4,6.7
						c-10.9,4.5-21.3,10.1-31.1,16.6c-0.5,0.4,0.2,0.8,0.6,0.5h0c41.6-27.7,94-37.3,143-29.4c45.4,7.2,90.5,30.5,114.3,71.2
						c12.4,21.1,17.8,45.4,17.1,69.8c-0.5,20-5.6,38.6-12.8,57.1c-17.3,44.3-41.3,85.9-62.1,128.6c-11.1,22.8-21.7,45.9-30.4,69.7
						c-7.8,21.3-14.3,43.3-17,65.8c-2.2,19.3-1.4,39.4,5.7,57.6c7.2,18.5,20.6,33.5,37.1,44.2c9.1,5.8,18.1,9.8,29,10.1
						c11.8,0.4,23.5-2.5,34.6-6.2c26.6-9,51.1-23.5,75.1-37.9c18.9-11.4,37.4-24.1,59.2-29.4c23-5.4,47.1-5,69.9,1.3"/>
					<path class="st6" d="M899.7,262c-38.7-20.2-88.2-20.9-126.5,0.2c-23,12.7-45,27.2-68.4,39.2c-12.7,6.5-25.8,12.5-39.5,16.6
						c-11.6,3.5-24.1,5.9-36.2,3.9c-10.8-1.8-20.5-8.3-29-14.9c-8-6.2-15-13.6-20.5-22.1c-10.7-16.4-14.8-35.9-14.9-55.3
						c0-21.9,4.7-43.6,10.9-64.4c7.2-24,16.7-47.2,27-70c20-44.6,43.7-87.5,62.7-132.5c7.1-16.8,13.9-34.2,17-52.3
						c4-23.5,2-47.7-5.8-70.2c-15.5-43.5-53.6-73.7-96.5-87.8c-45.2-14.8-96-13.2-140,4.9c-10.9,4.5-21.4,10-31.2,16.5
						c-0.5,0.4,0.3,0.6,0.6,0.4v0c41.7-27.6,94.3-36.6,143.3-27.9c45.3,8.1,89.4,32.3,113,72.9c12.3,21.3,17.9,45.8,17.4,70.3
						c-0.4,19.4-5.1,37.5-11.8,55.6c-16.5,44.3-39.7,85.9-59.8,128.5s-40.6,87.8-46.5,135c-2.4,19.1-2.1,38.9,4.2,57.3
						c6.2,18.1,18.2,33.3,33.8,44.4c8.4,6,17.4,11.2,27.8,12.5c11.1,1.4,22.4-0.7,33-3.8c26.4-7.6,50.8-21.6,74.3-35.5
						c19.4-11.5,38.6-25.3,60.5-31.5c22.5-6.4,46.8-6.4,69.5-1.1"/>
					<path class="st6" d="M901.9,263.1c-20.5-9.8-43.7-13.9-66.4-12.9c-20.6,0.9-40.7,6.8-58.5,17c-23.5,13.2-46.1,27.9-70.4,39.8
						c-12.4,6-25.2,11.5-38.6,14.9c-11.3,2.9-23.7,4.5-35.1,1.1c-10.2-3-20.1-10.1-28-17c-7.2-6.2-13.4-13.6-18.2-21.9
						c-9.7-16.6-13.1-36.1-12.8-55.1c0.4-22,5.2-43.7,11.4-64.7c7.1-23.7,16.3-46.7,26.2-69.4c19.3-44.2,42-87,60.2-131.8
						c6.8-16.8,13.3-34.2,16.1-52.3c3.6-23.2,1.5-47-6.3-69.2c-15.5-43.5-53.1-74.5-96-89.4c-44.8-15.5-95.4-14.6-139.4,3.1
						c-10.9,4.4-21.4,9.9-31.2,16.3c-0.5,0.4,0.3,0.6,0.6,0.3l0,0c41.8-27.4,94.2-35.9,143-26.3c45.3,8.9,88.9,34.1,112.3,74.9
						c12.3,21.4,18,46,17.6,70.6c-0.3,18.9-4.7,36.8-11.1,54.6c-15.6,43.8-37.8,85.2-57.2,127.4c-19.6,42.7-39.2,87.3-45.7,134.2
						c-2.6,19.1-2.8,39,2.8,57.7c5.3,17.7,16,33.3,30.6,44.6c7.9,6.2,17.1,12.3,27,14.5c10.4,2.3,21.3,1,31.5-1.5
						c26.3-6.3,50.7-20,73.9-33.4c11-6.4,21.8-13,32.8-19.3c9.1-5.3,18.3-10.2,28.4-13.4c22.1-7,46.2-7.7,68.9-3.2"/>
					<path class="st6" d="M904.4,264.7c-20.8-9.1-44.3-12.6-67-10.8c-10.8,0.8-21.5,2.9-31.8,6.4c-9.3,3.2-17.9,7.9-26.4,12.8
						c-23.5,13.5-46.5,28-71.2,39.3c-12.3,5.6-25,10.6-38.3,13.2c-10.9,2.1-22.7,2.6-33-2c-18.4-8.3-33.5-22.4-43-40.1
						c-8.7-16.9-11.3-36.3-10.7-55.1c0.7-22.1,5.7-44,12-65.1c7-23.4,15.9-46.2,25.5-68.7C639.1,50.5,660.9,8,678.2-36.5
						c6.5-16.7,12.6-33.9,15.3-51.6c3.4-23.1,1-46.7-6.8-68.8c-15.5-43.7-52.8-75.4-95.6-91.1c-44.4-16.2-94.8-16.1-138.8,1.3
						c-10.9,4.3-21.4,9.8-31.2,16.2c-0.5,0.4,0.2,0.7,0.6,0.5v0c41.6-27,93.7-35,142-24.9c45.8,9.5,89.2,35.9,112.5,77.4
						c12.1,21.6,17.9,46.2,17.6,71c-0.2,18.6-4.6,36.3-10.6,53.8c-15,43.4-36.2,84.5-54.8,126.4c-18.9,42.7-37.9,87.2-44.6,133.8
						c-2.7,19.1-3.2,39,1.9,57.8c4.6,17.4,14.5,33,28.2,44.6c7.4,6.2,16.2,12.4,25.4,15.5c9.8,3.3,20.5,2.7,30.6,0.8
						c26.3-5.1,51-18.6,74-31.7c11.1-6.3,22-12.9,33-19.3c9.1-5.3,18.2-10.5,28.2-14c21.5-7.5,45.2-8.8,67.6-5"/>
					<path class="st6" d="M906.6,266.2c-21-8.1-43.7-11-66.1-8.5c-10.2,1-20.2,3.3-29.8,6.7c-9.4,3.4-18.2,8.3-26.9,13.3
						c-23.7,13.6-46.9,28.1-72,39c-12.6,5.5-25.9,10.4-39.7,12c-11.4,1.4-21.8-0.2-31.9-5.8c-16.8-9.3-30.8-23-38.9-40.5
						c-7.9-17-10-36.1-9.2-54.6c1-21.8,5.8-43.2,11.8-64.1c6.8-23.4,15.5-46.2,24.7-68.6c18-43.7,39-86.2,55.5-130.4
						c6.2-16.6,12.1-33.8,14.6-51.4c3.2-23.1,0.7-46.7-7.1-68.7c-15.8-44.2-53.2-76.9-96.5-93.1c-43.9-16.4-93.9-16.8-137.6,0.4
						c-10.7,4.2-20.9,9.5-30.6,15.7c-0.4,0.2,0.6,0.1,0.7,0l0,0.1c42.3-27.3,95.2-34.4,143.8-22.8c45.3,10.9,87.7,38.4,110.3,80
						c11.5,21.5,17.5,45.5,17.3,69.9c0,18.2-4.2,35.7-9.8,52.9c-14.1,43-34.4,83.9-52.2,125.4c-18.3,42.7-36.7,86.8-43.7,133
						c-5.6,36.5-2.4,76.7,26.3,103.2c7.3,6.8,15.7,12.5,24.8,16.7c9,4.1,19.2,4.3,28.8,3c24.9-3.5,48.5-15.7,70.3-27.6
						c11.5-6.3,22.8-13,34.2-19.6c9.2-5.4,18.4-11,28.3-15.1c21.6-9,46-11.1,69.1-7.9"/>
					<path class="st6" d="M843.1,261.3c-10.3,1.4-20.5,4-30.1,8c-9.6,4-18.7,9.4-27.7,14.6c-23.5,13.6-46.9,27.8-72.2,37.9
						c-11.9,4.7-24.4,8.8-37.2,9.5c-11.5,0.6-21.1-2.6-30.8-8.5c-16-9.7-28.8-23.8-35.9-41.1c-7.1-17.2-8.6-36.2-7.5-54.6
						c2.7-45.9,19.5-90.6,36.4-132.8c17.2-43.2,37.2-85.2,52.9-129c6-16.6,11.5-33.8,13.8-51.3c3-22.2,0.1-45.7-7.3-66.8
						c-15.5-44.1-51.9-77.6-94.7-95c-43.5-17.6-93.6-19.3-137.6-2.6c-11.1,4.2-21.7,9.6-31.7,16c-0.5,0.4,0.2,0.7,0.6,0.4l0-0.1
						c42.1-26.9,94.7-33.6,142.9-21.4c45.4,11.5,87.3,39.9,110,81.5c11.8,22,18,46.6,17.9,71.6c0,17.4-3.9,34.3-9.1,50.8
						c-13.4,42.9-32.9,83.8-50.2,125.2C627.7,116,610,160,602.9,205.9c-5.6,35.7-3.7,75.8,23,103c6.5,6.5,14,12.1,22.1,16.5
						c8.4,4.8,18.1,7.1,27.7,6.5c25.1-1.4,49.5-13.9,71.3-25.5c11.8-6.3,23.4-13.1,35-19.8c9.2-5.3,18.4-10.9,28.1-15.3
						c20.5-9.3,43.9-12,66.2-9.9"/>
					<path class="st6" d="M845.9,265.4c-10.1,1.6-20,4.6-29.3,8.7c-9.7,4.4-19,9.9-28.2,15.2c-23.8,13.7-47.8,28-73.7,37.3
						c-11.7,4.2-24.3,7.6-36.9,6.8c-10.6-0.6-19.8-5.5-28.4-11.3c-14.8-10-26.1-24.3-32.2-41c-6.4-17.4-7.6-36.3-6.3-54.7
						c3.1-45.6,19.4-90,35.8-132.3c16.6-42.8,35.8-84.8,50.7-128.3c5.7-16.7,11-34,13.1-51.6c2.7-22.2-0.5-45.5-8.1-66.5
						c-15.8-44.3-52.2-78.3-95-96.3c-43.2-18.1-93.2-20.3-137.2-3.6c-10.7,4.1-21,9.2-30.7,15.4c-0.4,0.3,0.6,0.2,0.8,0l-0.1,0
						c42.4-26.9,95.2-32.7,143.3-19.4c45.4,12.6,86.7,42.1,109.1,84.1c11.4,21.7,17.5,45.8,17.7,70.3c0.2,17.3-3.5,34.1-8.4,50.6
						c-12.6,42.3-31.1,82.8-47.6,123.7c-17.2,42.7-34.4,86.6-41.8,132.3c-5.7,35-5.3,74.9,19.4,103c11.8,13.4,29.2,25.7,47.5,26.1
						c23.6,0.5,47.1-10.8,67.6-21.2c22.2-11.3,43-24.9,65.2-36.1c20.3-10.2,43.4-13.9,66-12.5"/>
					<path class="st6" d="M848.5,269.4c-21.3,4.3-39.6,15.2-58.3,25.9c-23.9,13.6-48.2,27.9-74.7,35.9c-11.2,3.4-23.4,5.9-35,3.6
						c-9.6-1.8-18.8-7.6-26.4-13.5c-30-22.9-36.8-60.7-33.9-96.4c3.7-45,19.2-88.7,35-130.7c16-42.5,34.4-84.3,48.5-127.5
						c5.4-16.6,10.4-33.6,12.4-51c2.5-21.8-0.8-44.5-8-65.2c-15.7-44.8-51.7-80.1-94.7-99.1c-42.5-18.8-92-22-135.9-6.1
						c-11.1,4-21.8,9.3-31.8,15.6c-0.5,0.4,0.3,0.4,0.6,0.3v0c42.5-26.8,95.3-32,143.2-17.8c45.4,13.4,86.2,43.9,108.5,86.1
						c11.4,21.7,17.5,45.8,17.9,70.4c0.3,17-3.3,33.7-8,50C696-8,678.3,32.2,662.5,72.7c-16.6,42.7-33.2,86.3-40.7,131.7
						c-5.7,34.5-6.3,74.3,16.6,103.1c5.5,6.8,12,12.7,19.2,17.5c7.6,5.1,15.8,9.6,25,10.8c10.5,1.3,21.2-0.7,31.2-3.6
						c12.2-3.5,24-8.6,35.5-14.2c22.7-11.1,44-24.6,66.4-36.3c19.9-10.3,42.2-15.2,64.6-14.4"/>
					<path class="st6" d="M850.1,273.8c-21.4,5.2-40.2,17.3-59.2,28c-23.3,13.1-47.5,26.9-73.7,33.3c-10.7,2.6-22.6,4.1-33.2,0.4
						c-8.7-3-17.1-8.6-24.1-14.4c-28.6-24-33.5-62.4-30.2-97.5c4.2-44.8,19.2-88.3,34.5-130.3c15.4-42.2,33-83.8,46.3-126.8
						c5.1-16.4,9.7-33.2,11.4-50.3c2.2-21.4-1.3-43.7-8.4-64c-15.7-44.6-50.9-80.3-93.3-100.3c-42.7-20.1-93-24.4-137.6-8.2
						c-10.8,3.9-21.1,8.9-30.8,15c-0.5,0.3,0.2,0.7,0.6,0.4l0,0.1c42.4-26.5,94.9-31,142.3-16.3c45.4,14.1,85.9,45.4,108.3,87.7
						c11.8,22.4,18.1,47.2,18.5,72.5c0.2,16.1-3.2,32-7.4,47.5C702.9-7.6,685.9,32.5,670.7,73c-15.9,42.4-31.8,85.6-39.4,130.5
						c-5.8,34-7.3,73.5,13.7,103c4.8,6.7,10.5,12.6,17,17.5c6.9,5.3,15.2,10.6,23.7,12.9c9.7,2.6,20,1.5,29.6-0.6
						c12.3-2.8,24.2-7.5,35.6-12.8c23.4-10.8,45.3-24.4,68-36.5c19.5-10.4,40-16.1,62.1-16.4"/>
					<path class="st6" d="M851.9,278.5c-21.1,6.1-40,18.6-59.1,29.2c-23.2,12.8-48.1,26.7-74.5,31.2c-10.8,1.8-21.3,1.4-31.2-3.5
						c-8.1-3.9-15.5-9-22.1-15.2c-26.4-25.1-29.6-63.7-26-98c4.7-44.2,19-87.2,33.7-128.9s31.5-83,44-125.5
						c4.9-16.5,9.3-33.4,10.8-50.6c2-21.2-1.7-43.2-8.7-63.2c-15.8-45-51-81.6-93.7-102.3c-41.8-20.3-91.1-25.6-135.3-10.2
						c-11.2,3.9-21.9,9-32,15.3c-0.6,0.3,0.3,0.5,0.6,0.3l0.1,0c42.6-26.3,94.9-30.2,142.1-14.6c45.7,15.1,85.9,47.7,108.1,90.6
						c11.5,22.1,17.7,46.6,18.4,71.5c0.3,15.7-2.9,31.5-6.7,46.7c-10.4,41.2-26.5,80.8-41,120.6c-15.4,42.5-30.8,85.7-38.5,130.3
						c-5.9,33.9-8.2,73.1,11,103.4c9.2,14.3,22.6,25.4,38.2,31.9c19.5,8,43.2-0.9,61.3-8.5c23.8-10.1,46-23.4,68.6-35.8
						c9.5-5.2,19.1-10.2,29.5-13.4c10.7-3.3,21.7-5.2,32.9-5.7"/>
					<path class="st6" d="M855.7,282.9c-21.6,6.8-41.1,20-60.9,30.7c-12.3,6.8-24.9,12.9-37.8,18.4c-11.7,4.8-24.1,9-36.8,10
						c-10.7,0.8-19.8-1.8-29.1-7c-7.3-4.1-14-9.2-19.8-15.3c-24.6-25.9-26.5-64.4-22.9-98c4.8-44.1,18.7-87,33-128.8
						c14.2-41.5,30.2-82.5,42-124.8c4.6-16.2,8.6-32.9,10-49.7c1.8-21.1-2-42.8-9-62.7c-16.1-45.6-51.5-83.1-94.5-104.6
						c-41.5-20.8-90.7-26.6-135-11.2c-10.8,3.8-21.2,8.8-30.9,14.8c-0.4,0.2,0.5,0.2,0.8,0v0.1c43.2-26.5,96.2-29.2,143.5-12.1
						c45.3,16.4,84.7,49.9,106.5,93.1c11.1,21.8,17.3,45.7,18.1,70.1c0.5,15.8-2.6,31.6-6.3,46.8c-9.8,40.8-25.1,80.2-39,119.8
						c-14.8,42.3-29.6,85.2-37.3,129.4c-5.9,33.7-8.8,72.7,9,103.5c8.1,14.1,20.5,25,35,32.3c18.7,9.3,39.6,3.7,58.1-3.4
						c24.3-9.3,46.9-22.6,69.7-35.1c9.3-5.1,18.7-10.4,28.8-14.1c10.8-3.9,22.1-6.4,33.6-7.3"/>
					<path class="st6" d="M857.6,287.8c-9.7,3.5-18.9,8.5-27.9,13.5c-11.4,6.2-22.6,12.5-34.1,18.5c-12,6.4-24.5,12.1-37.2,17
						c-11.5,4.2-23.8,7.9-36.2,7.4c-17-0.6-33.7-12.4-44.5-25c-23-27-23.8-65.7-19.8-99.1c5.1-43.6,18.4-86,32.1-127.4
						c13.5-41.1,28.8-81.8,39.9-123.6c4.3-16.2,8.1-32.7,9.3-49.4c1.6-20.8-2.3-42.1-9.2-61.7c-16.2-46-51.3-84.3-94.3-106.8
						c-41-21.4-89.8-28.3-134.2-13.4c-11,3.7-21.5,8.6-31.4,14.7c-0.4,0.2,0.5,0.2,0.8,0.1l0,0.1c43.4-26.4,96.4-28.3,143.3-10.3
						c45.5,17.5,84.7,52.2,106.4,96c10.5,21.2,17.1,44.8,17.9,68.6c0.5,15.7-2.3,31.4-5.8,46.6c-9.2,40.5-23.7,79.7-37,119
						c-14.2,42-28.3,84.5-36,128.3c-5.9,33.6-9.3,72.3,6.9,103.7c7.2,13.9,18.4,25.4,32.1,33c7.6,4.3,15.2,7.1,24,7.2
						c10.4,0.1,20.8-2.5,30.6-5.7c24.8-8.3,47.7-21.5,70.5-34c9.5-5.2,19-10.6,29-14.8c10.5-4.3,21.4-7.2,32.7-8.6"/>
					<path class="st6" d="M858.8,293.3c-22.2,9.4-42.7,22.8-64.3,33.4c-11.9,5.9-24,11.4-36.7,15.2c-10.7,3.3-22.4,5.8-33.5,3.7
						c-8.5-1.6-16.7-6.4-23.7-11.4c-6.3-4.5-11.9-10-16.6-16.2c-20.9-27.9-20.7-66.1-16.6-99.1c5.3-43.3,18.2-85.4,31.4-126.8
						c12.9-40.6,27.4-80.9,37.8-122.3c4.1-16.2,7.6-32.7,8.6-49.5c1.3-20.1-2.6-40.5-9.2-59.5c-16-45.9-50.2-84.7-92.4-108.4
						c-40.9-22.9-90.4-31.3-135.6-16.6c-11,3.6-21.5,8.5-31.5,14.5c-0.6,0.3,0.3,0.5,0.6,0.3h0c43.4-26.1,96-27.4,142.5-8.8
						c45.6,18.2,84.4,53.7,106.3,97.7c10.5,21.1,17.5,44.7,18.4,68.4c0.6,15.5-1.9,31.1-5.1,46.2c-8.5,40.2-22.3,79.1-35,118.1
						c-13.6,41.8-27.1,83.9-34.9,127.2c-6,33.6-9.8,72,4.8,104c6.2,13.7,16.1,25.3,28.6,33.5c6.9,4.5,14.7,8.6,23,9.8
						c10,1.4,20.3-0.6,30-3.4c24.2-7,46.7-19.5,68.8-31.5c20.2-11,39.8-22.1,62.7-25.9"/>
					<path class="st6" d="M861.4,298.4c-22.4,10.4-43.4,23.4-65.7,33.9c-11.6,5.5-23.6,10.5-36.1,13.6c-10.4,2.6-22,4.2-32.3,0.4
						c-14.9-5.6-27.7-15.7-36.6-28.9c-19.2-28.6-18.3-66.6-14.1-99.3c5.4-43,17.9-85,30.5-126.4c12.3-40.2,26.1-80.2,35.8-121.3
						c3.8-16.2,7.1-32.8,8-49.5c1-19.9-3-40-9.6-58.7c-16.2-45.9-50.1-85.3-92-109.7c-40.5-23.6-90-33.2-135.4-18.8
						c-11,3.5-21.5,8.3-31.4,14.2c-0.6,0.3,0.3,0.5,0.6,0.3v0c21.8-13.1,46.7-20.3,72.1-20.9c24.2-0.5,48.2,4.7,70.5,14.1
						c46,19.7,83.5,55.2,105.9,100c10.2,20.6,17.2,43.6,18.5,66.7c0.8,15.4-1.5,31-4.5,46.1c-7.8,39.7-20.9,78.4-33,117
						c-13,41.5-26,83.3-33.7,126.2c-6.1,33.7-10.3,71.8,2.8,104.5c5.3,13.7,14.4,25.7,26.3,34.5c6.2,4.5,13.4,8.7,20.7,11
						c9,2.7,18.7,1.7,27.8-0.2c24.1-5.2,46.6-17.4,68.2-28.9c20.2-10.8,40-23,62.6-28"/>
					<path class="st6" d="M863.5,304c-22.8,11.1-44.5,24.2-67.8,34.3c-20.1,8.7-43.9,17.8-65.1,7.7c-13.7-6.4-25.1-16.8-32.9-29.7
						c-17.5-29.5-15.8-67.2-11.5-99.9c5.6-42.4,17.5-83.9,29.6-124.9c11.8-40,24.8-79.7,33.9-120.4c3.6-16.1,6.6-32.5,7.3-49.1
						c0.8-19.5-3.2-39-9.7-57.4c-16.3-46.5-50.3-86.7-92.3-112.2c-39.9-24.1-88.8-34.7-134.2-20.9c-11.2,3.5-21.9,8.2-32,14.2
						c-0.6,0.3,0.3,0.5,0.6,0.3l0,0c21.9-13,46.8-20,72.3-20.2c24.4-0.2,48.5,5.6,70.7,15.6c45.3,20.3,83.2,57.5,105,102
						c10,20.4,17.2,43.3,18.5,66.1c0.9,15.3-1.2,30.8-4,45.9C744.5-5,732.1,33.5,720.6,71.8c-12.4,41.3-24.9,82.9-32.5,125.4
						c-6,33.6-10.3,71.2,1.5,104.1c4.8,13.5,12.8,25.8,23.9,34.9c6,4.9,12.6,8.8,19.8,11.8c8.2,3.5,16.9,3.7,25.6,2.4
						c24.1-3.6,46.9-15.7,68.2-26.9c20.1-10.5,40-23.1,62.1-28.8"/>
					<path class="st6" d="M865.6,309.6c-23.1,11.6-45.5,24.8-69.7,34.3c-11.3,4.4-23.3,8.4-35.5,8.9c-9.3,0.4-17.5-2.4-25.6-6.9
						c-13-7.2-23.5-18-30.3-31.2c-15.5-30.1-13.3-67.2-9-99.7c5.7-42.1,17.1-83.4,28.7-124.2c11.3-39.6,23.6-79.1,32-119.4
						c3.3-16,6-32.2,6.5-48.6c0.5-19.3-3.6-38.4-10-56.5c-16.6-46.6-50.2-87.2-92-113.5c-39.7-24.9-88.7-36.7-134.4-22.9
						c-11,3.4-21.6,8-31.5,13.9c-0.6,0.3,0.3,0.4,0.6,0.3l0,0c21.9-12.9,46.8-19.7,72.2-19.6c24.4,0.2,48.4,6.4,70.4,16.8
						c45.4,21.3,83.2,59.6,105,104.6c9.7,20,17,42.3,18.5,64.6c1,15.1-0.8,30.3-3.3,45.1C751.7-5.4,740,32.7,729.1,70.7
						c-11.8,41.2-23.9,82.5-31.4,124.7c-6,33.6-10.5,70.6-0.4,103.9c4.1,13.5,11,26.2,21.3,36c11,10.4,25.9,18.7,41.4,18.1
						c22.8-0.9,45-12.1,65-22.1c11.4-5.7,22.6-11.8,33.9-17.6c9.9-5.1,19.9-10.2,30.6-13.6"/>
					<path class="st6" d="M894.9,303.1c-10,3.3-19.4,8-28.7,12.7c-23.1,11.8-45.8,24.9-70.4,33.2c-10.5,3.6-21.9,6.6-33.1,5.6
						c-8.3-0.7-16.3-4.6-23.3-9.1c-12.1-7.8-21.7-18.9-27.5-32c-14-30.8-11.5-67.5-7-100.1c5.7-41.7,16.7-82.6,27.8-123.1
						c10.7-39.1,22.4-78.2,30.1-118.1c3.1-16,5.6-32.2,5.9-48.5c0.3-18.7-3.7-37.1-9.9-54.6c-16.6-47.1-50-88.6-91.7-115.9
						c-39.2-25.7-88.1-38.9-134.1-25.6c-11.2,3.3-22,7.9-32.1,13.8c-0.6,0.3,0.3,0.5,0.6,0.4h0c22-12.9,47-19.4,72.5-18.9
						c24.4,0.5,48.4,7.3,70.2,18.1c45.3,22.4,82.7,61.4,104.6,106.8c9.5,19.7,16.9,41.7,18.6,63.6c1.1,15.1-0.5,30.3-2.8,45.2
						c-6,38.6-17,76.4-27.4,114.1c-11.2,40.8-22.8,81.7-30.2,123.5c-6,33.8-10.6,70.5-1.6,104.2c3.6,13.4,9.8,26.2,19.3,36.4
						s23.5,19.3,37.6,20.5c9.8,0.9,19.8-1.4,29.1-4.2c12-3.7,23.5-8.7,34.7-14.1c11.5-5.5,22.8-11.5,34-17.3
						c9.8-5.1,19.7-10.4,30.1-14.3"/>
					<path class="st6" d="M896.3,308.6c-10.1,3.8-19.7,8.9-29.2,13.8c-23.1,11.9-46.4,25-71.7,31.9c-10.2,2.8-21.7,4.7-31.9,1.3
						c-7.1-2.5-13.8-6-19.8-10.5c-11.2-8.4-19.3-20-24.4-32.9c-12.3-31.3-9.4-67.6-4.9-100.2c5.8-41.3,16.3-81.9,26.9-122.3
						c10.2-38.9,21.2-77.7,28.3-117.4c2.8-15.5,5-31.3,5.1-47.1c0.2-18.4-3.9-36.4-10-53.7c-16.9-47.6-50.5-90-92.3-118.2
						c-38.8-26.2-87.2-40.2-133.3-27.4c-11.2,3.2-22,7.7-32.1,13.6c-0.6,0.3,0.3,0.4,0.6,0.2l0,0c22.1-12.8,47.4-19.1,73-18.1
						c24.4,1,48.3,8.3,69.9,19.5c45.2,23.4,82.3,63.4,104.3,109.2c9.2,19.3,16.7,40.7,18.5,62.2c1.3,14.9-0.1,30-2.2,44.8
						c-5.4,38.1-15.7,75.4-25.5,112.6c-10.7,40.6-21.7,81.2-29,122.5c-6,33.9-10.7,70.3-3,104.3c3,13.3,8.3,26.3,17.1,37
						c8.6,10.5,21.1,19.5,34.4,22.9c8.5,2.2,17.7,1,26.1-0.9c11.5-2.6,22.6-7,33.3-11.8c22.5-10,43.7-22.7,66.3-32.6"/>
					<path class="st6" d="M866.3,329.4c-22.6,11.5-46.4,24.8-71.7,29.1c-10,1.7-19.1,0.9-28.3-3.3c-6.3-2.8-12.2-6.5-17.4-11
						c-10.3-9-17.5-20.9-21.8-33.8c-10.9-32-7.7-68-3-100.8c5.8-41.1,16-81.4,26.1-121.6c9.7-38.5,20.1-77,26.4-116.3
						c2.5-15.4,4.4-31.1,4.3-46.8c-0.2-18.3-4.5-36-10.8-53.1c-17.5-47.5-50.8-90-92.3-118.9c-38.3-26.6-86.3-41.6-132.4-29
						c-11.2,3.1-21.9,7.6-31.9,13.3c-0.5,0.3,0.3,0.3,0.6,0.1l-0.1,0c22.4-12.9,48.1-18.9,73.9-17.4c24.3,1.5,47.9,9.4,69.2,21
						c44.6,24.3,81,64.5,103.1,110c9.3,19.1,16.9,40.1,19.1,61.3c1.5,14.9,0.4,30-1.5,44.8C772.9-5.1,763.2,31.9,754,68.7
						c-10.2,40.2-20.7,80.4-27.9,121.3c-6,34.1-10.8,70.3-4.3,104.6c2.6,13.6,7.2,27,15.4,38.3c7.8,10.7,18.5,19,30.8,23.9
						c18,7.3,38.5,0.1,55.5-6.8c23.2-9.4,45-21.9,67.6-32.5"/>
					<path class="st6" d="M863.8,337.1c-11.8,5.9-23.8,11.7-36.3,16.4c-11.2,4.3-23.2,8.2-35.3,8.1c-14.4-0.1-28.9-8.9-38.7-19
						c-9.5-9.8-15.6-22.4-19.2-35.5c-9.1-32.9-5.5-68.9-0.5-102.1c6.1-41,16-81.4,25.7-121.7c9.1-37.8,18.7-75.7,24.2-114.2
						c2.2-15.5,3.7-31.2,3.1-46.8c-0.8-18.4-6-36.3-12.7-53.3c-18.6-46.8-51.8-88.9-93.2-117.7c-37.7-26.3-85-41.4-130.5-29
						c-10.8,3-21.2,7.3-30.9,12.9c-0.4,0.2,0.6,0.1,0.7,0l0,0c22.3-12.7,47.8-18.5,73.3-16.6c24.2,1.8,47.5,10,68.5,21.8
						c44,24.7,79.8,64.7,102.3,109.5c9.6,19.1,17.8,40.1,20.5,61.4c1.9,14.3,1.2,28.8-0.3,43.1c-3.8,37.4-12.8,74.3-21.6,110.8
						c-9.6,40.2-19.8,80.4-27,121.2c-6.1,34.3-11,70.3-5.8,105c4,26.8,16,52.6,41.3,65.1c7,3.4,14,5.7,21.8,5.5
						c9.8-0.2,19.4-2.9,28.6-6c23.8-8.2,46-20.6,68.5-31.6"/>
					<path class="st6" d="M860.2,345c-11.7,5.5-23.7,10.8-36.1,14.6c-10,3-21.3,5.6-31.7,3.1c-27.9-6.7-44.4-32.5-50.4-58.8
						c-7.6-33.8-3.6-69.8,1.6-103.6c6.2-40.7,15.8-80.8,25-120.9c8.6-37.5,17.6-75.2,22.2-113.5c1.8-14.9,2.8-30,1.8-45.1
						c-1.3-18.7-7.2-36.8-14.5-54c-19.2-45.3-51.3-86.4-91.3-115.2c-37-26.7-83.7-43.2-129.3-31.7c-11.2,2.9-21.9,7.2-31.9,12.9
						c-0.6,0.3,0,0.8,0.4,0.5l0,0c21.3-12.1,45.7-17.8,70.2-16.3c23.7,1.5,46.7,9.4,67.4,20.9c43.7,24.1,79.2,63.4,102.8,107
						c10.6,19.6,19.6,41.2,23.6,63.3c2.5,14,2.3,28.5,1.2,42.7c-2.8,36.7-11,73-19.1,108.8c-9.1,40.1-18.9,80.1-26.2,120.6
						c-6.2,34.9-11.5,71.1-7.7,106.6c2.8,26.2,11.9,53.4,35.2,68.2c5.7,3.8,12,6.6,18.7,8.3c8.9,2,18.4,0.5,27.1-1.8
						c24.2-6.2,46.7-18.5,68.9-29.5"/>
					<path class="st6" d="M858.1,351.9c-19,8.3-42.6,18.9-63.3,10.8c-26.4-10.3-39.8-35-44.7-61.7c-6.3-34.4-2.1-70.5,3.2-104.7
						c6.3-40.7,15.5-80.8,24.3-121c8.1-37,16.4-74.2,20-111.9c1.4-14.8,2.2-29.8,0.7-44.6c-1.9-18.8-8.5-37.1-16.2-54.2
						c-20-44.6-51.8-85.2-91.3-114.1c-36.3-26.6-82.2-43.6-127.4-32.5c-11.1,2.8-21.8,7-31.8,12.6c-0.6,0.3-0.1,0.8,0.4,0.5l0,0
						c21-11.8,44.9-17.2,68.9-15.7c23.6,1.6,46.3,9.7,66.9,21.2c43.3,24.4,78.5,63.5,102.5,106.7c11,19.7,20.3,41.2,25.1,63.3
						c2.9,13.6,3.1,27.7,2.4,41.6c-1.8,36.2-9.4,72-16.9,107.4c-8.5,40.1-18,80.1-25.2,120.5c-6.3,35.3-11.7,71.8-8.8,107.7
						c2,26,9.3,54.1,31.1,70.6c5,3.8,10.6,6.9,16.5,9.2c8,3.1,15.9,3.5,24.3,2.1c23.8-3.8,46.2-15.8,67.5-26.2"/>
					<path class="st6" d="M855.5,359c-11.2,4.4-23.2,8.6-35.4,9.1c-8.2,0.3-15.8-2.2-23.1-6c-24.4-12.6-35-38.8-38.7-64.7
						c-5-34.8-0.6-70.8,4.7-105.2c6.3-40.8,15.3-81.1,23.7-121.6c7.5-36.4,15.1-73.2,17.9-110.4c1.1-14.7,1.4-29.7-0.7-44.4
						c-2.7-19-10.1-37.6-18.3-54.8c-21.1-44.2-53.1-84.7-92.9-113.5c-36-26-81.1-42.4-125.5-30.8c-10.3,2.7-20.2,6.7-29.5,11.9
						c-0.4,0.2,0.6,0.1,0.7,0l0,0.1c21.8-12.1,46.8-17.3,71.6-14.7c22.8,2.4,44.6,10.9,64.3,22.5c42.5,25,76.8,64,100.9,106.6
						c11,19.5,20.5,40.6,25.8,62.4c3.2,13.1,3.8,26.8,3.4,40.3c-0.9,36-7.9,71.8-14.9,106.9c-7.9,39.8-16.9,79.3-24,119.3
						c-6.2,35.5-11.7,71.9-9.8,108.1c1.3,26,7,55.1,27.3,73.3c9.7,8.7,22.9,15.4,36.1,15c9.8-0.3,19.4-3,28.5-6.2
						c11.7-4.2,23.1-9.1,34.3-14.5"/>
					<path class="st6" d="M849.7,366c-9.7,3-20.7,5.7-30.9,3.4c-6.6-1.6-12.9-4.4-18.5-8.1c-22.9-14.7-31.1-42.5-33.8-68.1
						c-3.7-35.5,0.9-71.8,6.4-106.9c6.3-40.3,14.9-80.1,22.6-120.1c7-36.2,14-72.8,15.7-109.7c0.7-14.2,0.5-28.5-1.9-42.5
						c-3.3-18.7-11.1-36.9-19.4-53.9c-21.5-43.6-53-83.7-92.1-112.8c-35-26-79.2-43.4-123.2-33c-10.8,2.6-21.1,6.6-30.8,12
						c-0.6,0.3-0.1,0.9,0.4,0.6v-0.1c20.6-11.4,44-16.4,67.5-14.5c22.6,2,44.3,10.1,63.9,21.4c42.2,24.4,76.4,62.8,101.2,104.4
						c11.9,20,21.9,41.4,28.6,63.7c3.9,13,5.1,26.6,5.2,40.2c0.2,35.1-6,70.2-12.3,104.6c-7.3,39.8-16,79.3-22.9,119.2
						c-6.3,36.1-11.9,73-11,109.8c0.7,26.1,4.7,55.7,22.9,75.9c8.1,9,18.7,15.4,30.5,18.4c8.8,2.2,18.3,0.5,27-1.8
						c11.6-3.1,22.8-7.7,33.7-12.5"/>
					<path class="st6" d="M848.2,370.8c-9.5,2-18.5,2-27.6-1.5c-5.8-2.2-11.2-5.3-16.1-9.1c-21.1-16.8-27.4-45.4-29.3-70.9
						c-2.7-36,2.1-72.6,7.6-108.1c6.3-40.3,14.5-80.2,21.8-120.3C811,25.5,817.2-10.5,818-46.7c0.3-13.9-0.2-28.1-3.2-41.7
						c-4.2-19.3-12.8-38.1-21.9-55.5c-22.1-42.4-53.1-81.7-91.5-110.5c-34.5-25.8-78.1-43.2-121.5-32.9
						c-10.4,2.5-20.4,6.4-29.8,11.6c-0.6,0.3,0.3,0.5,0.6,0.3l0,0c20.4-11.2,43.7-16,66.8-13.9c22.6,2.2,44.2,10.7,63.6,22.2
						c41.5,24.7,75,62.9,99.9,103.9c12.1,19.7,22,40.6,29.4,62.5c4.3,13.1,6.2,26.5,6.6,40.2c1.2,34.7-4.4,69.6-10.2,103.7
						c-6.8,39.5-14.9,78.8-21.7,118.4c-6.2,36.4-11.9,73.5-11.6,110.6c0.2,26.4,3.1,56.4,19.8,78.1c7.1,9.2,16.7,16.1,27.6,20.1
						c18.3,6.7,38.2-1,55.3-8"/>
					<path class="st6" d="M881,365.5c-11.1,4.4-23,8.6-35,9.2c-13.4,0.6-27-6.3-36.5-15.4c-19.4-18.6-24.2-47.9-25.6-73.5
						c-1.9-36.2,2.9-72.6,8.4-108.3c6.2-40.4,14.1-80.4,20.9-120.7c5.8-35,11.4-70.5,11.3-106.1c0-13.8-1-27.8-4.4-41.3
						c-5-19.5-14.1-38.5-23.7-56.1c-22.8-42-53.8-81.3-92.2-110c-34-25.4-76.6-42.4-119.2-32.2c-10,2.5-19.7,6.2-28.8,11.1
						c-0.4,0.2,0.6,0.1,0.7,0l0,0c21-11.4,45-15.9,68.6-12.9c21.8,2.8,42.5,11.5,61.2,23c40.9,25.2,73.8,63.3,98.8,104
						c11.9,19.1,21.8,39.4,29.6,60.6c4.6,13,7.3,26.5,8.1,40.3c2,33.9-2.8,68.2-8,101.6c-6.2,39.6-14,79-20.5,118.6
						c-6.1,36.4-11.6,73.2-12,110.1c-0.3,27,1.5,57.5,16.7,80.9c6.2,9.6,15,17.3,25.3,22.1c6.1,2.8,12.5,4.7,19.2,4.6
						c9.9-0.1,19.7-3,29-6.3"/>
					<path class="st6" d="M876,372.4c-10,3.1-21.4,6.1-31.8,3.5c-11.5-2.9-21.8-9.3-29.6-18.2c-17.6-20.4-21.1-50.1-21.8-76
						c-1.1-36.9,3.9-73.9,9.4-110.3c6-39.6,13.4-79,19.5-118.6c5.3-34.7,10.3-70,9.2-105.1c-0.4-13.5-1.8-27.2-5.6-40.2
						c-5.8-19.4-15.1-38.1-24.9-55.8c-23.2-41.6-53.8-80.7-91.9-109.6c-33.2-25.1-74.8-42.6-116.8-33.1c-10.2,2.4-20.1,6-29.3,11
						c-0.6,0.3,0.3,0.3,0.6,0.2l0,0c20.3-10.9,43.4-15.3,66.3-12.6c21.7,2.7,42.3,11.3,60.8,22.8c40.5,25,73,62.8,98.2,102.8
						c12,18.8,22.3,38.7,30.6,59.4c5.4,13.1,8.8,27,10.2,41.1c3.2,33.4-1,67.5-5.6,100.6c-5.5,39.2-12.8,78.1-19.1,117.1
						c-5.9,36.7-11.5,73.7-12.5,110.9c-0.8,27.7,0.2,58.7,13.7,83.7c5.1,9.8,12.9,18.1,22.3,23.9c5,3,10.5,5.2,16.2,6.5
						c8.4,2,17.3,0.4,25.5-1.8"/>
				</g>
				
					<linearGradient id="SVGID_6_" gradientUnits="userSpaceOnUse" x1="-120.06" y1="303.6319" x2="-47.56" y2="303.6319" gradientTransform="matrix(-1 0 0 -1 578 502)">
					<stop  offset="0" style="stop-color:#EFBF53"/>
					<stop  offset="0.24" style="stop-color:#EFBF53"/>
					<stop  offset="1" style="stop-color:#F07F4E"/>
				</linearGradient>
				<path class="st7" d="M625.6,198.4c0.8,47.6,71.7,47.6,72.5,0C697.2,150.7,626.4,150.7,625.6,198.4z"/>
			</g>
		</g>
	</g>
</g>
</svg>
